<svg width="28" height="28" viewBox="0 0 28 28" fill="none" xmlns="http://www.w3.org/2000/svg">
<path d="M26.8333 22.1667C26.8333 22.7855 26.5875 23.379 26.1499 23.8166C25.7123 24.2542 25.1188 24.5 24.5 24.5H3.49996C2.88112 24.5 2.28763 24.2542 1.85004 23.8166C1.41246 23.379 1.16663 22.7855 1.16663 22.1667V9.33333C1.16663 8.71449 1.41246 8.121 1.85004 7.68342C2.28763 7.24583 2.88112 7 3.49996 7H8.16663L10.5 3.5H17.5L19.8333 7H24.5C25.1188 7 25.7123 7.24583 26.1499 7.68342C26.5875 8.121 26.8333 8.71449 26.8333 9.33333V22.1667Z" stroke="black" stroke-width="2" stroke-linecap="round" stroke-linejoin="round"/>
<path d="M14 19.8333C16.5774 19.8333 18.6667 17.744 18.6667 15.1667C18.6667 12.5893 16.5774 10.5 14 10.5C11.4227 10.5 9.33337 12.5893 9.33337 15.1667C9.33337 17.744 11.4227 19.8333 14 19.8333Z" stroke="black" stroke-width="2" stroke-linecap="round" stroke-linejoin="round"/>
</svg>
