<svg width="40" height="40" viewBox="0 0 40 40" fill="none" xmlns="http://www.w3.org/2000/svg">
<g clip-path="url(#clip0_3422_28513)">
<path d="M12.6746 15.1131L12.6745 15.1131C12.3636 15.1838 12.0546 14.9897 11.9837 14.6789L12.6746 15.1131ZM12.6746 15.1131C12.7645 15.0926 13.6986 14.8723 14.8141 14.3461C15.1183 15.0052 15.7536 15.9185 17.1029 15.9195C17.8397 15.9417 18.7151 15.6341 19.1728 14.9913C19.5686 15.4075 20.136 15.8212 20.8121 15.7718L20.8122 15.7718C21.4804 15.7225 22.0194 15.2616 22.4592 14.4477C22.8458 14.8154 23.4015 15.1862 24.0469 15.13C24.6294 15.0797 25.1119 14.7037 25.4955 14.0642C25.751 14.1976 26.0755 14.3068 26.4453 14.2952C26.9995 14.2788 27.489 14.0023 27.8992 13.5018L27.8993 13.5018C28.1012 13.2553 28.0652 12.8917 27.8187 12.6897L27.8187 12.6897C27.5721 12.4877 27.2087 12.5237 27.0066 12.7702L27.0065 12.7702L27.0039 12.7736C26.7549 13.0957 26.5075 13.1603 26.2971 13.1306C26.0733 13.099 25.8601 12.9559 25.7052 12.8026C25.5656 12.6457 25.3608 12.5974 25.1804 12.6299C24.999 12.6627 24.8232 12.7807 24.7478 12.9782C24.6122 13.3085 24.4678 13.5595 24.3248 13.7287C24.1797 13.9005 24.0509 13.9711 23.9481 13.9801L23.948 13.9801C23.8591 13.988 23.7548 13.9613 23.6377 13.8993C23.5215 13.8379 23.4029 13.7471 23.29 13.6426C23.0649 13.4344 22.879 13.1875 22.7982 13.0605C22.676 12.8539 22.4508 12.7748 22.2492 12.7959C22.0476 12.8169 21.8435 12.941 21.7666 13.1686C21.5903 13.6459 21.4033 14.0108 21.2177 14.2571C21.0283 14.5087 20.8604 14.6109 20.7279 14.6208L20.7277 14.6208C20.6406 14.6275 20.5356 14.598 20.4149 14.528C20.2953 14.4587 20.1718 14.3561 20.0525 14.2356C19.814 13.9946 19.609 13.6989 19.5031 13.5069M12.6746 15.1131L17.6315 14.7018M17.6315 14.7018L17.6315 14.7018C18.062 14.6057 18.3791 14.2508 18.4158 13.8461C18.386 13.5418 18.5875 13.3205 18.8178 13.2428C19.0534 13.1633 19.3526 13.2234 19.5031 13.5069M17.6315 14.7018C17.0289 14.8364 16.6428 14.7415 16.3758 14.5505C16.1317 14.3761 15.9662 14.1073 15.8334 13.7968C16.9622 13.1028 18.0936 12.0824 18.5961 10.6335C18.8665 9.93241 18.584 9.2299 18.0892 8.80419C17.5943 8.37831 16.8606 8.2071 16.2088 8.59574C14.5322 9.48622 13.7903 11.4704 14.3902 13.2624C13.3416 13.7674 12.4451 13.9815 12.4174 13.988M17.6315 14.7018L12.4174 13.988M19.5031 13.5069C19.5033 13.5074 19.5036 13.5078 19.5038 13.5082L19.3711 13.5782M19.5031 13.5069C19.5029 13.5066 19.5027 13.5062 19.5025 13.5059L19.3711 13.5782M19.3711 13.5782C19.1529 13.1649 18.5099 13.3875 18.5665 13.844L20.7391 14.7704C20.2244 14.8099 19.5945 13.9836 19.3711 13.5782ZM12.4174 13.988C12.107 14.0591 11.9127 14.3683 11.9837 14.6789L12.4174 13.988ZM15.4226 12.6839C15.1163 11.466 15.627 10.1521 16.7468 9.61654C16.9582 9.51544 17.1746 9.5732 17.3304 9.71597C17.4894 9.86164 17.562 10.0742 17.5056 10.2554C17.1416 11.3048 16.317 12.0999 15.4226 12.6839Z" fill="black" stroke="black" stroke-width="0.3"/>
<path d="M12.6593 6.12593H27.9427C28.2614 6.12593 28.5197 5.86753 28.5197 5.54888C28.5197 5.23022 28.2614 4.97183 27.9427 4.97183H12.6593C12.3406 4.97183 12.0822 5.23022 12.0822 5.54888C12.0822 5.86754 12.3406 6.12593 12.6593 6.12593Z" fill="black" stroke="black" stroke-width="0.3"/>
<path d="M35.1166 0.427002H35.0976C35.1039 0.427002 35.11 0.427418 35.1162 0.427502L35.1166 0.427002Z" fill="black"/>
<path d="M4.0533 24.7826C4.43363 25.0389 4.53407 25.5547 4.27758 25.9346C4.0211 26.3145 3.50488 26.4147 3.12455 26.1584C2.74422 25.9021 2.64378 25.3863 2.90026 25.0064C3.15675 24.6265 3.67297 24.5263 4.0533 24.7826Z" fill="black"/>
<path d="M36.0281 25.114C35.6309 25.3432 35.4947 25.8507 35.724 26.2476C35.9535 26.6445 36.4614 26.7804 36.8587 26.5513C37.256 26.3221 37.3921 25.8146 37.1628 25.4177C36.9334 25.0208 36.4253 24.8849 36.0281 25.114Z" fill="black"/>
<mask id="path-6-outside-1_3422_28513" maskUnits="userSpaceOnUse" x="-0.984653" y="14.0352" width="42" height="27" fill="black">
<rect fill="white" x="-0.984653" y="14.0352" width="42" height="27"/>
<path d="M39.7854 25.6411L34.094 15.8539C33.6868 15.1535 32.7846 14.9136 32.083 15.3184L29.4854 16.8179C28.9374 17.1229 28.6414 17.7986 28.7812 18.4065L26.5649 18.9659C25.9866 19.1119 25.3844 19.0823 24.8234 18.8803L21.736 17.7687C20.636 17.3725 19.4328 17.4949 18.4349 18.1043L15.5601 19.8602C14.8537 19.5738 14.1873 19.3925 13.5774 19.3232C12.916 19.2481 12.2718 19.0568 11.6892 18.7683C11.9712 18.1412 11.7383 17.3392 11.1582 16.9634L8.67149 15.2864C7.99983 14.8334 7.08313 15.0098 6.62806 15.68L0.268444 25.0461C-0.191659 25.6944 -0.00375769 26.6672 0.664318 27.098L3.15068 28.7748C3.66075 29.12 4.33002 29.105 4.82574 28.7555C5.28969 29.3328 5.82871 29.8369 6.43683 30.26L5.93197 30.9811C5.31138 31.8674 5.52756 33.0932 6.41385 33.7137C6.75566 33.9531 7.14795 34.0679 7.53657 34.0679C7.58354 34.0679 7.63043 34.0657 7.67715 34.0624C7.52213 34.8074 7.81005 35.6085 8.47198 36.0719C8.9823 36.4272 9.59921 36.5135 10.1746 36.3388C10.1801 36.4124 10.1892 36.4861 10.2031 36.5598C10.3011 37.0827 10.5988 37.5336 11.0408 37.8291C11.7153 38.2967 12.6166 38.2821 13.2805 37.8202C13.4097 38.2287 13.666 38.5825 14.0229 38.8324C14.8992 39.4488 16.1314 39.2428 16.7557 38.3506L16.9463 38.0784L18.9489 39.6087C19.7773 40.2592 20.933 40.0722 21.6062 39.2422C21.8978 38.8821 22.0497 38.4532 22.0687 38.022C22.9122 38.6524 24.2044 38.479 24.8517 37.6457C25.1249 37.3083 25.2809 36.9023 25.3049 36.4773L25.337 36.5033C26.2143 37.2138 27.5062 37.078 28.2167 36.2008C28.5347 35.8081 28.6831 35.3323 28.6714 34.8628C29.4659 35.1254 30.3764 34.8886 30.9337 34.2008C31.6391 33.3303 31.5156 32.0348 30.6619 31.3159L20.3585 22.4636C20.2481 22.3688 20.0971 22.3368 19.9578 22.3784L17.5822 23.0888C17.5001 23.1134 17.4271 23.1621 17.373 23.2288L15.8286 25.1315C14.86 26.3249 13.1619 26.6866 11.7912 25.9913C11.5629 25.8829 11.4849 25.568 11.6362 25.3656L14.1106 21.8687C14.2117 21.7259 14.3386 21.6072 14.4879 21.5161L18.8803 18.8333C19.6561 18.3594 20.5915 18.2642 21.4469 18.5723L24.5342 19.6839C25.2559 19.9437 26.0304 19.9818 26.7741 19.7942L29.1548 19.1932L31.8013 23.7438L34.5165 28.4128C33.9838 29.0218 33.1607 29.7792 32.0307 30.3143C31.8176 30.4153 31.7266 30.6699 31.8276 30.8831C31.9289 31.0984 32.188 31.1863 32.3963 31.0863C33.3836 30.6187 34.2973 29.9314 35.0619 29.0846C35.5268 29.4134 36.1507 29.4495 36.6503 29.1594L39.2475 27.6602C39.944 27.2773 40.1992 26.3198 39.7854 25.6411ZM3.6283 28.0667L1.14193 26.3899C0.86059 26.2085 0.781244 25.799 0.975039 25.5259L7.33466 16.1599C7.52709 15.8761 7.91485 15.8054 8.19388 15.9944L10.6806 17.6716C10.962 17.8529 11.0408 18.2632 10.8471 18.5362L4.48795 27.9007C4.29637 28.1829 3.91075 28.2572 3.6283 28.0667ZM8.27203 32.9364C7.90485 33.2723 7.30844 33.308 6.90368 33.0141C6.40318 32.6636 6.28113 31.9714 6.63156 31.4709L7.40273 30.3695C7.75522 29.8657 8.45105 29.7494 8.946 30.0974C9.37339 30.3967 9.52363 30.945 9.34051 31.4105L8.27203 32.9364ZM10.505 35.1001C10.1545 35.6007 9.46213 35.7227 8.9618 35.3723C8.4613 35.0218 8.33916 34.3296 8.6896 33.8291L10.9283 30.6321C11.2808 30.1282 11.9766 30.0119 12.4715 30.3599C12.9719 30.7102 13.094 31.402 12.7441 31.9025L10.505 35.1001ZM13.0658 36.8471C12.7233 37.3397 12.039 37.4693 11.5406 37.136C11.0132 36.8181 10.8593 36.06 11.2237 35.563L13.9325 31.6945C14.283 31.194 14.9752 31.0718 15.4767 31.4231L15.487 31.4302C15.9858 31.7795 16.1089 32.4704 15.7613 32.9704L13.0658 36.8471ZM16.0559 37.8608C15.7053 38.3612 15.0132 38.4833 14.5126 38.1329C14.1051 37.8578 13.9323 37.2989 14.109 36.8429L15.6637 34.6067C16.0437 34.2599 16.6205 34.2195 17.0441 34.5177C17.5391 34.8493 17.6679 35.58 17.3162 36.0609L16.0559 37.8608ZM14.0425 20.7872C13.7934 20.9393 13.5818 21.1372 13.4133 21.3754L10.9388 24.8723C10.4861 25.4813 10.7201 26.4259 11.4048 26.7531C13.1319 27.6288 15.2713 27.1732 16.4917 25.6698L17.9532 23.8693L19.979 23.2635L30.1083 31.9666C30.6119 32.3906 30.6844 33.1517 30.2699 33.6634C29.8475 34.1846 29.0796 34.2653 28.5581 33.8431L23.2615 29.5539C23.0783 29.4055 22.8094 29.4338 22.6609 29.6171C22.5125 29.8004 22.5408 30.0692 22.7241 30.2177L27.3761 33.9848L27.3763 33.9851L27.3769 33.9855C27.8878 34.3998 27.9668 35.1523 27.5529 35.6635C27.1388 36.1748 26.3859 36.2539 25.8745 35.8397L20.639 31.5999C20.4557 31.4515 20.1868 31.4798 20.0384 31.6631C19.8899 31.8463 19.9182 32.1152 20.1015 32.2637L24.0114 35.43C24.5183 35.8233 24.6019 36.6183 24.1879 37.1084C23.7945 37.6153 22.9999 37.6985 22.5095 37.2846L19.6959 35.0062C19.5126 34.8577 19.2437 34.886 19.0953 35.0693C18.9468 35.2526 18.9751 35.5214 19.1584 35.6699L20.7608 36.9675C20.7609 36.9676 20.761 36.9678 20.7612 36.9679C20.7613 36.968 20.7615 36.9681 20.7618 36.9683C21.2893 37.3974 21.3704 38.1762 20.9425 38.7048C20.5569 39.1809 19.9143 39.2841 19.4735 38.9349L17.4366 37.3783L18.0161 36.5508C18.639 35.6994 18.4107 34.4051 17.5342 33.818C17.2061 33.5883 16.8313 33.4735 16.458 33.4647L16.4628 33.4579C17.0783 32.5725 16.8604 31.3491 15.9762 30.7299L15.9658 30.7227C15.2741 30.2383 14.3754 30.2638 13.7191 30.7198C13.5989 30.305 13.3423 29.9268 12.9618 29.6603C12.0757 29.0397 10.8496 29.2559 10.229 30.1422L10.1328 30.2796C9.99629 29.9353 9.76158 29.6257 9.43617 29.3979C8.65945 28.8541 7.62181 28.953 6.95945 29.5823C6.35962 29.1704 5.83324 28.6717 5.38996 28.0932L11.2296 19.4936C11.9216 19.8486 12.6917 20.0822 13.4813 20.172C13.8396 20.2127 14.2236 20.2987 14.6297 20.4288L14.0425 20.7872ZM38.8203 26.9206L36.2232 28.4198C35.9272 28.5919 35.5477 28.485 35.3771 28.1942L29.6862 18.4084C29.5119 18.1226 29.6192 17.7189 29.9125 17.5576L32.5101 16.0582C32.8001 15.8893 33.1836 15.9862 33.3557 16.2832L39.0471 26.0704C39.1306 26.2141 39.2422 26.7129 38.8203 26.9206Z"/>
</mask>
<path d="M39.7854 25.6411L34.094 15.8539C33.6868 15.1535 32.7846 14.9136 32.083 15.3184L29.4854 16.8179C28.9374 17.1229 28.6414 17.7986 28.7812 18.4065L26.5649 18.9659C25.9866 19.1119 25.3844 19.0823 24.8234 18.8803L21.736 17.7687C20.636 17.3725 19.4328 17.4949 18.4349 18.1043L15.5601 19.8602C14.8537 19.5738 14.1873 19.3925 13.5774 19.3232C12.916 19.2481 12.2718 19.0568 11.6892 18.7683C11.9712 18.1412 11.7383 17.3392 11.1582 16.9634L8.67149 15.2864C7.99983 14.8334 7.08313 15.0098 6.62806 15.68L0.268444 25.0461C-0.191659 25.6944 -0.00375769 26.6672 0.664318 27.098L3.15068 28.7748C3.66075 29.12 4.33002 29.105 4.82574 28.7555C5.28969 29.3328 5.82871 29.8369 6.43683 30.26L5.93197 30.9811C5.31138 31.8674 5.52756 33.0932 6.41385 33.7137C6.75566 33.9531 7.14795 34.0679 7.53657 34.0679C7.58354 34.0679 7.63043 34.0657 7.67715 34.0624C7.52213 34.8074 7.81005 35.6085 8.47198 36.0719C8.9823 36.4272 9.59921 36.5135 10.1746 36.3388C10.1801 36.4124 10.1892 36.4861 10.2031 36.5598C10.3011 37.0827 10.5988 37.5336 11.0408 37.8291C11.7153 38.2967 12.6166 38.2821 13.2805 37.8202C13.4097 38.2287 13.666 38.5825 14.0229 38.8324C14.8992 39.4488 16.1314 39.2428 16.7557 38.3506L16.9463 38.0784L18.9489 39.6087C19.7773 40.2592 20.933 40.0722 21.6062 39.2422C21.8978 38.8821 22.0497 38.4532 22.0687 38.022C22.9122 38.6524 24.2044 38.479 24.8517 37.6457C25.1249 37.3083 25.2809 36.9023 25.3049 36.4773L25.337 36.5033C26.2143 37.2138 27.5062 37.078 28.2167 36.2008C28.5347 35.8081 28.6831 35.3323 28.6714 34.8628C29.4659 35.1254 30.3764 34.8886 30.9337 34.2008C31.6391 33.3303 31.5156 32.0348 30.6619 31.3159L20.3585 22.4636C20.2481 22.3688 20.0971 22.3368 19.9578 22.3784L17.5822 23.0888C17.5001 23.1134 17.4271 23.1621 17.373 23.2288L15.8286 25.1315C14.86 26.3249 13.1619 26.6866 11.7912 25.9913C11.5629 25.8829 11.4849 25.568 11.6362 25.3656L14.1106 21.8687C14.2117 21.7259 14.3386 21.6072 14.4879 21.5161L18.8803 18.8333C19.6561 18.3594 20.5915 18.2642 21.4469 18.5723L24.5342 19.6839C25.2559 19.9437 26.0304 19.9818 26.7741 19.7942L29.1548 19.1932L31.8013 23.7438L34.5165 28.4128C33.9838 29.0218 33.1607 29.7792 32.0307 30.3143C31.8176 30.4153 31.7266 30.6699 31.8276 30.8831C31.9289 31.0984 32.188 31.1863 32.3963 31.0863C33.3836 30.6187 34.2973 29.9314 35.0619 29.0846C35.5268 29.4134 36.1507 29.4495 36.6503 29.1594L39.2475 27.6602C39.944 27.2773 40.1992 26.3198 39.7854 25.6411ZM3.6283 28.0667L1.14193 26.3899C0.86059 26.2085 0.781244 25.799 0.975039 25.5259L7.33466 16.1599C7.52709 15.8761 7.91485 15.8054 8.19388 15.9944L10.6806 17.6716C10.962 17.8529 11.0408 18.2632 10.8471 18.5362L4.48795 27.9007C4.29637 28.1829 3.91075 28.2572 3.6283 28.0667ZM8.27203 32.9364C7.90485 33.2723 7.30844 33.308 6.90368 33.0141C6.40318 32.6636 6.28113 31.9714 6.63156 31.4709L7.40273 30.3695C7.75522 29.8657 8.45105 29.7494 8.946 30.0974C9.37339 30.3967 9.52363 30.945 9.34051 31.4105L8.27203 32.9364ZM10.505 35.1001C10.1545 35.6007 9.46213 35.7227 8.9618 35.3723C8.4613 35.0218 8.33916 34.3296 8.6896 33.8291L10.9283 30.6321C11.2808 30.1282 11.9766 30.0119 12.4715 30.3599C12.9719 30.7102 13.094 31.402 12.7441 31.9025L10.505 35.1001ZM13.0658 36.8471C12.7233 37.3397 12.039 37.4693 11.5406 37.136C11.0132 36.8181 10.8593 36.06 11.2237 35.563L13.9325 31.6945C14.283 31.194 14.9752 31.0718 15.4767 31.4231L15.487 31.4302C15.9858 31.7795 16.1089 32.4704 15.7613 32.9704L13.0658 36.8471ZM16.0559 37.8608C15.7053 38.3612 15.0132 38.4833 14.5126 38.1329C14.1051 37.8578 13.9323 37.2989 14.109 36.8429L15.6637 34.6067C16.0437 34.2599 16.6205 34.2195 17.0441 34.5177C17.5391 34.8493 17.6679 35.58 17.3162 36.0609L16.0559 37.8608ZM14.0425 20.7872C13.7934 20.9393 13.5818 21.1372 13.4133 21.3754L10.9388 24.8723C10.4861 25.4813 10.7201 26.4259 11.4048 26.7531C13.1319 27.6288 15.2713 27.1732 16.4917 25.6698L17.9532 23.8693L19.979 23.2635L30.1083 31.9666C30.6119 32.3906 30.6844 33.1517 30.2699 33.6634C29.8475 34.1846 29.0796 34.2653 28.5581 33.8431L23.2615 29.5539C23.0783 29.4055 22.8094 29.4338 22.6609 29.6171C22.5125 29.8004 22.5408 30.0692 22.7241 30.2177L27.3761 33.9848L27.3763 33.9851L27.3769 33.9855C27.8878 34.3998 27.9668 35.1523 27.5529 35.6635C27.1388 36.1748 26.3859 36.2539 25.8745 35.8397L20.639 31.5999C20.4557 31.4515 20.1868 31.4798 20.0384 31.6631C19.8899 31.8463 19.9182 32.1152 20.1015 32.2637L24.0114 35.43C24.5183 35.8233 24.6019 36.6183 24.1879 37.1084C23.7945 37.6153 22.9999 37.6985 22.5095 37.2846L19.6959 35.0062C19.5126 34.8577 19.2437 34.886 19.0953 35.0693C18.9468 35.2526 18.9751 35.5214 19.1584 35.6699L20.7608 36.9675C20.7609 36.9676 20.761 36.9678 20.7612 36.9679C20.7613 36.968 20.7615 36.9681 20.7618 36.9683C21.2893 37.3974 21.3704 38.1762 20.9425 38.7048C20.5569 39.1809 19.9143 39.2841 19.4735 38.9349L17.4366 37.3783L18.0161 36.5508C18.639 35.6994 18.4107 34.4051 17.5342 33.818C17.2061 33.5883 16.8313 33.4735 16.458 33.4647L16.4628 33.4579C17.0783 32.5725 16.8604 31.3491 15.9762 30.7299L15.9658 30.7227C15.2741 30.2383 14.3754 30.2638 13.7191 30.7198C13.5989 30.305 13.3423 29.9268 12.9618 29.6603C12.0757 29.0397 10.8496 29.2559 10.229 30.1422L10.1328 30.2796C9.99629 29.9353 9.76158 29.6257 9.43617 29.3979C8.65945 28.8541 7.62181 28.953 6.95945 29.5823C6.35962 29.1704 5.83324 28.6717 5.38996 28.0932L11.2296 19.4936C11.9216 19.8486 12.6917 20.0822 13.4813 20.172C13.8396 20.2127 14.2236 20.2987 14.6297 20.4288L14.0425 20.7872ZM38.8203 26.9206L36.2232 28.4198C35.9272 28.5919 35.5477 28.485 35.3771 28.1942L29.6862 18.4084C29.5119 18.1226 29.6192 17.7189 29.9125 17.5576L32.5101 16.0582C32.8001 15.8893 33.1836 15.9862 33.3557 16.2832L39.0471 26.0704C39.1306 26.2141 39.2422 26.7129 38.8203 26.9206Z" fill="black"/>
<path d="M39.7854 25.6411L34.094 15.8539C33.6868 15.1535 32.7846 14.9136 32.083 15.3184L29.4854 16.8179C28.9374 17.1229 28.6414 17.7986 28.7812 18.4065L26.5649 18.9659C25.9866 19.1119 25.3844 19.0823 24.8234 18.8803L21.736 17.7687C20.636 17.3725 19.4328 17.4949 18.4349 18.1043L15.5601 19.8602C14.8537 19.5738 14.1873 19.3925 13.5774 19.3232C12.916 19.2481 12.2718 19.0568 11.6892 18.7683C11.9712 18.1412 11.7383 17.3392 11.1582 16.9634L8.67149 15.2864C7.99983 14.8334 7.08313 15.0098 6.62806 15.68L0.268444 25.0461C-0.191659 25.6944 -0.00375769 26.6672 0.664318 27.098L3.15068 28.7748C3.66075 29.12 4.33002 29.105 4.82574 28.7555C5.28969 29.3328 5.82871 29.8369 6.43683 30.26L5.93197 30.9811C5.31138 31.8674 5.52756 33.0932 6.41385 33.7137C6.75566 33.9531 7.14795 34.0679 7.53657 34.0679C7.58354 34.0679 7.63043 34.0657 7.67715 34.0624C7.52213 34.8074 7.81005 35.6085 8.47198 36.0719C8.9823 36.4272 9.59921 36.5135 10.1746 36.3388C10.1801 36.4124 10.1892 36.4861 10.2031 36.5598C10.3011 37.0827 10.5988 37.5336 11.0408 37.8291C11.7153 38.2967 12.6166 38.2821 13.2805 37.8202C13.4097 38.2287 13.666 38.5825 14.0229 38.8324C14.8992 39.4488 16.1314 39.2428 16.7557 38.3506L16.9463 38.0784L18.9489 39.6087C19.7773 40.2592 20.933 40.0722 21.6062 39.2422C21.8978 38.8821 22.0497 38.4532 22.0687 38.022C22.9122 38.6524 24.2044 38.479 24.8517 37.6457C25.1249 37.3083 25.2809 36.9023 25.3049 36.4773L25.337 36.5033C26.2143 37.2138 27.5062 37.078 28.2167 36.2008C28.5347 35.8081 28.6831 35.3323 28.6714 34.8628C29.4659 35.1254 30.3764 34.8886 30.9337 34.2008C31.6391 33.3303 31.5156 32.0348 30.6619 31.3159L20.3585 22.4636C20.2481 22.3688 20.0971 22.3368 19.9578 22.3784L17.5822 23.0888C17.5001 23.1134 17.4271 23.1621 17.373 23.2288L15.8286 25.1315C14.86 26.3249 13.1619 26.6866 11.7912 25.9913C11.5629 25.8829 11.4849 25.568 11.6362 25.3656L14.1106 21.8687C14.2117 21.7259 14.3386 21.6072 14.4879 21.5161L18.8803 18.8333C19.6561 18.3594 20.5915 18.2642 21.4469 18.5723L24.5342 19.6839C25.2559 19.9437 26.0304 19.9818 26.7741 19.7942L29.1548 19.1932L31.8013 23.7438L34.5165 28.4128C33.9838 29.0218 33.1607 29.7792 32.0307 30.3143C31.8176 30.4153 31.7266 30.6699 31.8276 30.8831C31.9289 31.0984 32.188 31.1863 32.3963 31.0863C33.3836 30.6187 34.2973 29.9314 35.0619 29.0846C35.5268 29.4134 36.1507 29.4495 36.6503 29.1594L39.2475 27.6602C39.944 27.2773 40.1992 26.3198 39.7854 25.6411ZM3.6283 28.0667L1.14193 26.3899C0.86059 26.2085 0.781244 25.799 0.975039 25.5259L7.33466 16.1599C7.52709 15.8761 7.91485 15.8054 8.19388 15.9944L10.6806 17.6716C10.962 17.8529 11.0408 18.2632 10.8471 18.5362L4.48795 27.9007C4.29637 28.1829 3.91075 28.2572 3.6283 28.0667ZM8.27203 32.9364C7.90485 33.2723 7.30844 33.308 6.90368 33.0141C6.40318 32.6636 6.28113 31.9714 6.63156 31.4709L7.40273 30.3695C7.75522 29.8657 8.45105 29.7494 8.946 30.0974C9.37339 30.3967 9.52363 30.945 9.34051 31.4105L8.27203 32.9364ZM10.505 35.1001C10.1545 35.6007 9.46213 35.7227 8.9618 35.3723C8.4613 35.0218 8.33916 34.3296 8.6896 33.8291L10.9283 30.6321C11.2808 30.1282 11.9766 30.0119 12.4715 30.3599C12.9719 30.7102 13.094 31.402 12.7441 31.9025L10.505 35.1001ZM13.0658 36.8471C12.7233 37.3397 12.039 37.4693 11.5406 37.136C11.0132 36.8181 10.8593 36.06 11.2237 35.563L13.9325 31.6945C14.283 31.194 14.9752 31.0718 15.4767 31.4231L15.487 31.4302C15.9858 31.7795 16.1089 32.4704 15.7613 32.9704L13.0658 36.8471ZM16.0559 37.8608C15.7053 38.3612 15.0132 38.4833 14.5126 38.1329C14.1051 37.8578 13.9323 37.2989 14.109 36.8429L15.6637 34.6067C16.0437 34.2599 16.6205 34.2195 17.0441 34.5177C17.5391 34.8493 17.6679 35.58 17.3162 36.0609L16.0559 37.8608ZM14.0425 20.7872C13.7934 20.9393 13.5818 21.1372 13.4133 21.3754L10.9388 24.8723C10.4861 25.4813 10.7201 26.4259 11.4048 26.7531C13.1319 27.6288 15.2713 27.1732 16.4917 25.6698L17.9532 23.8693L19.979 23.2635L30.1083 31.9666C30.6119 32.3906 30.6844 33.1517 30.2699 33.6634C29.8475 34.1846 29.0796 34.2653 28.5581 33.8431L23.2615 29.5539C23.0783 29.4055 22.8094 29.4338 22.6609 29.6171C22.5125 29.8004 22.5408 30.0692 22.7241 30.2177L27.3761 33.9848L27.3763 33.9851L27.3769 33.9855C27.8878 34.3998 27.9668 35.1523 27.5529 35.6635C27.1388 36.1748 26.3859 36.2539 25.8745 35.8397L20.639 31.5999C20.4557 31.4515 20.1868 31.4798 20.0384 31.6631C19.8899 31.8463 19.9182 32.1152 20.1015 32.2637L24.0114 35.43C24.5183 35.8233 24.6019 36.6183 24.1879 37.1084C23.7945 37.6153 22.9999 37.6985 22.5095 37.2846L19.6959 35.0062C19.5126 34.8577 19.2437 34.886 19.0953 35.0693C18.9468 35.2526 18.9751 35.5214 19.1584 35.6699L20.7608 36.9675C20.7609 36.9676 20.761 36.9678 20.7612 36.9679C20.7613 36.968 20.7615 36.9681 20.7618 36.9683C21.2893 37.3974 21.3704 38.1762 20.9425 38.7048C20.5569 39.1809 19.9143 39.2841 19.4735 38.9349L17.4366 37.3783L18.0161 36.5508C18.639 35.6994 18.4107 34.4051 17.5342 33.818C17.2061 33.5883 16.8313 33.4735 16.458 33.4647L16.4628 33.4579C17.0783 32.5725 16.8604 31.3491 15.9762 30.7299L15.9658 30.7227C15.2741 30.2383 14.3754 30.2638 13.7191 30.7198C13.5989 30.305 13.3423 29.9268 12.9618 29.6603C12.0757 29.0397 10.8496 29.2559 10.229 30.1422L10.1328 30.2796C9.99629 29.9353 9.76158 29.6257 9.43617 29.3979C8.65945 28.8541 7.62181 28.953 6.95945 29.5823C6.35962 29.1704 5.83324 28.6717 5.38996 28.0932L11.2296 19.4936C11.9216 19.8486 12.6917 20.0822 13.4813 20.172C13.8396 20.2127 14.2236 20.2987 14.6297 20.4288L14.0425 20.7872ZM38.8203 26.9206L36.2232 28.4198C35.9272 28.5919 35.5477 28.485 35.3771 28.1942L29.6862 18.4084C29.5119 18.1226 29.6192 17.7189 29.9125 17.5576L32.5101 16.0582C32.8001 15.8893 33.1836 15.9862 33.3557 16.2832L39.0471 26.0704C39.1306 26.2141 39.2422 26.7129 38.8203 26.9206Z" stroke="black" stroke-width="0.6" mask="url(#path-6-outside-1_3422_28513)"/>
<path d="M10.0066 1.0041H32.5165C31.9695 1.61437 31.6361 2.41954 31.6361 3.30109V10.8977C31.6361 11.2164 31.8945 11.4747 32.2132 11.4747C32.5318 11.4747 32.7902 11.2164 32.7902 10.8977V7.82399H37.9821C38.3008 7.82399 38.5592 7.5656 38.5592 7.24694V3.30109C38.5591 1.50955 37.1834 0.0338052 35.4306 -0.133835V-0.15H35.2806H10.0066C8.7464 -0.15 7.72137 0.875029 7.72137 2.13525V13.0026C7.72137 13.3213 7.97976 13.5797 8.29842 13.5797C8.61708 13.5797 8.87547 13.3213 8.87547 13.0026V2.13525C8.87547 1.51166 9.38304 1.0041 10.0066 1.0041ZM37.4051 6.66989H32.7902V3.30109C32.7902 2.03523 33.8249 1.0041 35.0976 1.0041C36.3704 1.0041 37.4051 2.03523 37.4051 3.30109V6.66989Z" fill="black" stroke="black" stroke-width="0.3"/>
<path d="M32.2132 13.8397C32.6026 13.8397 32.9183 13.524 32.9183 13.1345C32.9183 12.7451 32.6026 12.4293 32.2132 12.4293C31.8237 12.4293 31.508 12.7451 31.508 13.1345C31.508 13.524 31.8237 13.8397 32.2132 13.8397Z" fill="black" stroke="black" stroke-width="0.3"/>
</g>
<defs>
<clipPath id="clip0_3422_28513">
<rect width="40" height="40" fill="white"/>
</clipPath>
</defs>
</svg>
