<svg width="40" height="40" viewBox="0 0 40 40" fill="none" xmlns="http://www.w3.org/2000/svg">
<g clip-path="url(#clip0_3422_27865)">
<mask id="path-1-outside-1_3422_27865" maskUnits="userSpaceOnUse" x="1.42188" y="-1" width="37" height="42" fill="black">
<rect fill="white" x="1.42188" y="-1" width="37" height="42"/>
<path d="M24.1016 40H4.17969C3.21039 40 2.42188 39.2114 2.42188 38.2422V8.92188C2.42188 7.95266 3.21039 7.16406 4.17969 7.16406H7.54766C7.87125 7.16406 8.13359 7.42633 8.13359 7.75C8.13359 8.07367 7.87125 8.33594 7.54766 8.33594H4.17969C3.85656 8.33594 3.59375 8.59875 3.59375 8.92188V38.2422C3.59375 38.5653 3.85656 38.8281 4.17969 38.8281H24.1016C24.4247 38.8281 24.6875 38.5653 24.6875 38.2422V24.6094H11.2109C10.2416 24.6094 9.45312 23.8208 9.45312 22.8516V1.75781C9.45312 0.788594 10.2416 0 11.2109 0H28.7891C29.7584 0 30.5469 0.788594 30.5469 1.75781V7.61719C30.5469 7.94086 30.2845 8.20312 29.9609 8.20312C29.6373 8.20312 29.375 7.94086 29.375 7.61719V1.75781C29.375 1.43469 29.1122 1.17188 28.7891 1.17188H11.2109C10.8878 1.17188 10.625 1.43469 10.625 1.75781V22.8516C10.625 23.1747 10.8878 23.4375 11.2109 23.4375H28.7891C29.1122 23.4375 29.375 23.1747 29.375 22.8516V9.96094C29.375 9.63727 29.6373 9.375 29.9609 9.375H33.4766C33.8002 9.375 34.0625 9.63727 34.0625 9.96094C34.0625 10.2846 33.8002 10.5469 33.4766 10.5469H30.5469V12.8906H33.4766C33.8002 12.8906 34.0625 13.1529 34.0625 13.4766C34.0625 13.8002 33.8002 14.0625 33.4766 14.0625H30.5469V16.4062H33.4766C33.8002 16.4062 34.0625 16.6685 34.0625 16.9922C34.0625 17.3159 33.8002 17.5781 33.4766 17.5781H30.5469V19.9219H33.4766C33.8002 19.9219 34.0625 20.1841 34.0625 20.5078C34.0625 20.8315 33.8002 21.0938 33.4766 21.0938H30.5469V22.8516C30.5469 23.0569 30.5115 23.2541 30.4465 23.4375H33.4766C33.8002 23.4375 34.0625 23.6998 34.0625 24.0234C34.0625 24.3471 33.8002 24.6094 33.4766 24.6094H25.8594V26.9531H33.4766C33.8002 26.9531 34.0625 27.2154 34.0625 27.5391C34.0625 27.8627 33.8002 28.125 33.4766 28.125H25.8594V31.7969H35.8203C36.1434 31.7969 36.4062 31.5341 36.4062 31.2109V5.40625C36.4062 5.08312 36.1434 4.82031 35.8203 4.82031H32.3047C31.9811 4.82031 31.7188 4.55805 31.7188 4.23438C31.7188 3.9107 31.9811 3.64844 32.3047 3.64844H35.8203C36.7896 3.64844 37.5781 4.43703 37.5781 5.40625V31.2109C37.5781 32.1802 36.7896 32.9688 35.8203 32.9688H25.8594V36.4844H32.3047C32.6278 36.4844 32.8906 36.2216 32.8906 35.8984V34.7266C32.8906 34.4029 33.153 34.1406 33.4766 34.1406C33.8002 34.1406 34.0625 34.4029 34.0625 34.7266V35.8984C34.0625 36.8677 33.274 37.6562 32.3047 37.6562H25.8594V38.2422C25.8594 39.2114 25.0709 40 24.1016 40ZM27.6172 22.2656H12.3828C12.0592 22.2656 11.7969 22.0034 11.7969 21.6797V19.6442C11.7969 16.6334 13.7875 15.9445 15.241 15.4414C16.4406 15.0262 17.1218 14.7466 17.2419 13.8443C15.9487 12.9609 15.0984 11.4751 15.0984 9.79422V7.37813C15.0984 4.67539 17.2973 2.47656 20 2.47656C22.7027 2.47656 24.9016 4.67547 24.9016 7.37813V9.79422C24.9016 11.4751 24.0513 12.9609 22.7581 13.8443C22.8782 14.7466 23.5594 15.0262 24.759 15.4414C26.2125 15.9445 28.2031 16.6334 28.2031 19.6442V21.6797C28.2031 22.0034 27.9408 22.2656 27.6172 22.2656ZM12.9688 21.0938H27.0312V19.6442C27.0312 17.4679 25.8006 17.042 24.3757 16.5488C23.3234 16.1847 22.0547 15.7455 21.6777 14.4C21.1541 14.5914 20.5891 14.6958 20 14.6958C19.4109 14.6958 18.8459 14.5914 18.3223 14.4C17.9453 15.7455 16.6766 16.1847 15.6243 16.5488C14.1994 17.042 12.9688 17.4679 12.9688 19.6442V21.0938ZM20 3.64844C17.9434 3.64844 16.2702 5.32156 16.2702 7.37813V9.79422C16.2702 11.8508 17.9434 13.5239 20 13.5239C22.0566 13.5239 23.7298 11.8508 23.7298 9.79422V7.37813C23.7298 5.32156 22.0566 3.64844 20 3.64844Z"/>
</mask>
<path d="M24.1016 40H4.17969C3.21039 40 2.42188 39.2114 2.42188 38.2422V8.92188C2.42188 7.95266 3.21039 7.16406 4.17969 7.16406H7.54766C7.87125 7.16406 8.13359 7.42633 8.13359 7.75C8.13359 8.07367 7.87125 8.33594 7.54766 8.33594H4.17969C3.85656 8.33594 3.59375 8.59875 3.59375 8.92188V38.2422C3.59375 38.5653 3.85656 38.8281 4.17969 38.8281H24.1016C24.4247 38.8281 24.6875 38.5653 24.6875 38.2422V24.6094H11.2109C10.2416 24.6094 9.45312 23.8208 9.45312 22.8516V1.75781C9.45312 0.788594 10.2416 0 11.2109 0H28.7891C29.7584 0 30.5469 0.788594 30.5469 1.75781V7.61719C30.5469 7.94086 30.2845 8.20312 29.9609 8.20312C29.6373 8.20312 29.375 7.94086 29.375 7.61719V1.75781C29.375 1.43469 29.1122 1.17188 28.7891 1.17188H11.2109C10.8878 1.17188 10.625 1.43469 10.625 1.75781V22.8516C10.625 23.1747 10.8878 23.4375 11.2109 23.4375H28.7891C29.1122 23.4375 29.375 23.1747 29.375 22.8516V9.96094C29.375 9.63727 29.6373 9.375 29.9609 9.375H33.4766C33.8002 9.375 34.0625 9.63727 34.0625 9.96094C34.0625 10.2846 33.8002 10.5469 33.4766 10.5469H30.5469V12.8906H33.4766C33.8002 12.8906 34.0625 13.1529 34.0625 13.4766C34.0625 13.8002 33.8002 14.0625 33.4766 14.0625H30.5469V16.4062H33.4766C33.8002 16.4062 34.0625 16.6685 34.0625 16.9922C34.0625 17.3159 33.8002 17.5781 33.4766 17.5781H30.5469V19.9219H33.4766C33.8002 19.9219 34.0625 20.1841 34.0625 20.5078C34.0625 20.8315 33.8002 21.0938 33.4766 21.0938H30.5469V22.8516C30.5469 23.0569 30.5115 23.2541 30.4465 23.4375H33.4766C33.8002 23.4375 34.0625 23.6998 34.0625 24.0234C34.0625 24.3471 33.8002 24.6094 33.4766 24.6094H25.8594V26.9531H33.4766C33.8002 26.9531 34.0625 27.2154 34.0625 27.5391C34.0625 27.8627 33.8002 28.125 33.4766 28.125H25.8594V31.7969H35.8203C36.1434 31.7969 36.4062 31.5341 36.4062 31.2109V5.40625C36.4062 5.08312 36.1434 4.82031 35.8203 4.82031H32.3047C31.9811 4.82031 31.7188 4.55805 31.7188 4.23438C31.7188 3.9107 31.9811 3.64844 32.3047 3.64844H35.8203C36.7896 3.64844 37.5781 4.43703 37.5781 5.40625V31.2109C37.5781 32.1802 36.7896 32.9688 35.8203 32.9688H25.8594V36.4844H32.3047C32.6278 36.4844 32.8906 36.2216 32.8906 35.8984V34.7266C32.8906 34.4029 33.153 34.1406 33.4766 34.1406C33.8002 34.1406 34.0625 34.4029 34.0625 34.7266V35.8984C34.0625 36.8677 33.274 37.6562 32.3047 37.6562H25.8594V38.2422C25.8594 39.2114 25.0709 40 24.1016 40ZM27.6172 22.2656H12.3828C12.0592 22.2656 11.7969 22.0034 11.7969 21.6797V19.6442C11.7969 16.6334 13.7875 15.9445 15.241 15.4414C16.4406 15.0262 17.1218 14.7466 17.2419 13.8443C15.9487 12.9609 15.0984 11.4751 15.0984 9.79422V7.37813C15.0984 4.67539 17.2973 2.47656 20 2.47656C22.7027 2.47656 24.9016 4.67547 24.9016 7.37813V9.79422C24.9016 11.4751 24.0513 12.9609 22.7581 13.8443C22.8782 14.7466 23.5594 15.0262 24.759 15.4414C26.2125 15.9445 28.2031 16.6334 28.2031 19.6442V21.6797C28.2031 22.0034 27.9408 22.2656 27.6172 22.2656ZM12.9688 21.0938H27.0312V19.6442C27.0312 17.4679 25.8006 17.042 24.3757 16.5488C23.3234 16.1847 22.0547 15.7455 21.6777 14.4C21.1541 14.5914 20.5891 14.6958 20 14.6958C19.4109 14.6958 18.8459 14.5914 18.3223 14.4C17.9453 15.7455 16.6766 16.1847 15.6243 16.5488C14.1994 17.042 12.9688 17.4679 12.9688 19.6442V21.0938ZM20 3.64844C17.9434 3.64844 16.2702 5.32156 16.2702 7.37813V9.79422C16.2702 11.8508 17.9434 13.5239 20 13.5239C22.0566 13.5239 23.7298 11.8508 23.7298 9.79422V7.37813C23.7298 5.32156 22.0566 3.64844 20 3.64844Z" fill="black"/>
<path d="M24.1016 40H4.17969C3.21039 40 2.42188 39.2114 2.42188 38.2422V8.92188C2.42188 7.95266 3.21039 7.16406 4.17969 7.16406H7.54766C7.87125 7.16406 8.13359 7.42633 8.13359 7.75C8.13359 8.07367 7.87125 8.33594 7.54766 8.33594H4.17969C3.85656 8.33594 3.59375 8.59875 3.59375 8.92188V38.2422C3.59375 38.5653 3.85656 38.8281 4.17969 38.8281H24.1016C24.4247 38.8281 24.6875 38.5653 24.6875 38.2422V24.6094H11.2109C10.2416 24.6094 9.45312 23.8208 9.45312 22.8516V1.75781C9.45312 0.788594 10.2416 0 11.2109 0H28.7891C29.7584 0 30.5469 0.788594 30.5469 1.75781V7.61719C30.5469 7.94086 30.2845 8.20312 29.9609 8.20312C29.6373 8.20312 29.375 7.94086 29.375 7.61719V1.75781C29.375 1.43469 29.1122 1.17188 28.7891 1.17188H11.2109C10.8878 1.17188 10.625 1.43469 10.625 1.75781V22.8516C10.625 23.1747 10.8878 23.4375 11.2109 23.4375H28.7891C29.1122 23.4375 29.375 23.1747 29.375 22.8516V9.96094C29.375 9.63727 29.6373 9.375 29.9609 9.375H33.4766C33.8002 9.375 34.0625 9.63727 34.0625 9.96094C34.0625 10.2846 33.8002 10.5469 33.4766 10.5469H30.5469V12.8906H33.4766C33.8002 12.8906 34.0625 13.1529 34.0625 13.4766C34.0625 13.8002 33.8002 14.0625 33.4766 14.0625H30.5469V16.4062H33.4766C33.8002 16.4062 34.0625 16.6685 34.0625 16.9922C34.0625 17.3159 33.8002 17.5781 33.4766 17.5781H30.5469V19.9219H33.4766C33.8002 19.9219 34.0625 20.1841 34.0625 20.5078C34.0625 20.8315 33.8002 21.0938 33.4766 21.0938H30.5469V22.8516C30.5469 23.0569 30.5115 23.2541 30.4465 23.4375H33.4766C33.8002 23.4375 34.0625 23.6998 34.0625 24.0234C34.0625 24.3471 33.8002 24.6094 33.4766 24.6094H25.8594V26.9531H33.4766C33.8002 26.9531 34.0625 27.2154 34.0625 27.5391C34.0625 27.8627 33.8002 28.125 33.4766 28.125H25.8594V31.7969H35.8203C36.1434 31.7969 36.4062 31.5341 36.4062 31.2109V5.40625C36.4062 5.08312 36.1434 4.82031 35.8203 4.82031H32.3047C31.9811 4.82031 31.7188 4.55805 31.7188 4.23438C31.7188 3.9107 31.9811 3.64844 32.3047 3.64844H35.8203C36.7896 3.64844 37.5781 4.43703 37.5781 5.40625V31.2109C37.5781 32.1802 36.7896 32.9688 35.8203 32.9688H25.8594V36.4844H32.3047C32.6278 36.4844 32.8906 36.2216 32.8906 35.8984V34.7266C32.8906 34.4029 33.153 34.1406 33.4766 34.1406C33.8002 34.1406 34.0625 34.4029 34.0625 34.7266V35.8984C34.0625 36.8677 33.274 37.6562 32.3047 37.6562H25.8594V38.2422C25.8594 39.2114 25.0709 40 24.1016 40ZM27.6172 22.2656H12.3828C12.0592 22.2656 11.7969 22.0034 11.7969 21.6797V19.6442C11.7969 16.6334 13.7875 15.9445 15.241 15.4414C16.4406 15.0262 17.1218 14.7466 17.2419 13.8443C15.9487 12.9609 15.0984 11.4751 15.0984 9.79422V7.37813C15.0984 4.67539 17.2973 2.47656 20 2.47656C22.7027 2.47656 24.9016 4.67547 24.9016 7.37813V9.79422C24.9016 11.4751 24.0513 12.9609 22.7581 13.8443C22.8782 14.7466 23.5594 15.0262 24.759 15.4414C26.2125 15.9445 28.2031 16.6334 28.2031 19.6442V21.6797C28.2031 22.0034 27.9408 22.2656 27.6172 22.2656ZM12.9688 21.0938H27.0312V19.6442C27.0312 17.4679 25.8006 17.042 24.3757 16.5488C23.3234 16.1847 22.0547 15.7455 21.6777 14.4C21.1541 14.5914 20.5891 14.6958 20 14.6958C19.4109 14.6958 18.8459 14.5914 18.3223 14.4C17.9453 15.7455 16.6766 16.1847 15.6243 16.5488C14.1994 17.042 12.9688 17.4679 12.9688 19.6442V21.0938ZM20 3.64844C17.9434 3.64844 16.2702 5.32156 16.2702 7.37813V9.79422C16.2702 11.8508 17.9434 13.5239 20 13.5239C22.0566 13.5239 23.7298 11.8508 23.7298 9.79422V7.37813C23.7298 5.32156 22.0566 3.64844 20 3.64844Z" stroke="black" stroke-width="0.6" mask="url(#path-1-outside-1_3422_27865)"/>
</g>
<defs>
<clipPath id="clip0_3422_27865">
<rect width="40" height="40" fill="white"/>
</clipPath>
</defs>
</svg>
