<svg width="20" height="20" viewBox="0 0 20 20" fill="none" xmlns="http://www.w3.org/2000/svg">
<path d="M11.9523 20C12.6396 20 13.1265 19.4081 13.4797 18.4916L19.7327 2.15752C19.9045 1.71838 20 1.32697 20 1.00239C20 0.381862 19.6181 0 18.9976 0C18.673 0 18.2816 0.0954654 17.8425 0.267303L1.42243 6.55847C0.620525 6.86396 0 7.35084 0 8.04773C0 8.92601 0.668258 9.22196 1.58473 9.49881L6.73986 11.0644C7.35084 11.2554 7.69451 11.2363 8.10501 10.8544L18.5776 1.06921C18.7017 0.954654 18.8449 0.973747 18.9403 1.05967C19.0358 1.15513 19.0453 1.29833 18.9308 1.42243L9.18377 11.9332C8.81146 12.3246 8.78282 12.6492 8.9642 13.2888L10.4821 18.3294C10.7685 19.2936 11.0644 20 11.9523 20Z" fill="white"/>
</svg>
