<svg width="36" height="34" viewBox="0 0 36 34" fill="none" xmlns="http://www.w3.org/2000/svg">
<path d="M3.91925 33.9167C3.07785 33.9167 2.35666 33.5894 1.75566 32.9346C1.15467 32.2798 0.854167 31.4941 0.854167 30.5775V4.25603C0.854167 3.37211 1.15467 2.59458 1.75566 1.92345C2.35666 1.25231 3.07785 0.916748 3.91925 0.916748H31.9558C32.7971 0.916748 33.5183 1.25231 34.1193 1.92345C34.7203 2.59458 35.0208 3.37211 35.0208 4.25603V30.5775C35.0208 31.4941 34.7203 32.2798 34.1193 32.9346C33.5183 33.5894 32.7971 33.9167 31.9558 33.9167H3.91925ZM3.91925 31.756H31.9558C32.2262 31.756 32.4816 31.6333 32.722 31.3877C32.9624 31.1422 33.0826 30.8721 33.0826 30.5775V4.25603C33.0826 3.96139 32.9624 3.6913 32.722 3.44577C32.4816 3.20023 32.2262 3.07746 31.9558 3.07746H3.91925C3.6488 3.07746 3.39338 3.20023 3.15298 3.44577C2.91258 3.6913 2.79238 3.96139 2.79238 4.25603V30.5775C2.79238 30.8721 2.91258 31.1422 3.15298 31.3877C3.39338 31.6333 3.6488 31.756 3.91925 31.756ZM6.75896 26.6489H13.7455V24.0462H6.75896V26.6489ZM22.3098 22.3766L30.1528 13.8319L28.4399 11.9659L22.3098 18.6935L19.7405 15.8944L18.0727 17.7605L22.3098 22.3766ZM6.75896 18.7426H13.7455V16.14H6.75896V18.7426ZM6.75896 10.7873H13.7455V8.18461H6.75896V10.7873Z" fill="black"/>
</svg>
