<svg width="50" height="16" viewBox="0 0 50 16" fill="none" xmlns="http://www.w3.org/2000/svg">
<path d="M48.9731 3.09557C49.8441 1.76544 48.8898 0 47.2999 0H2C0.89543 0 0 0.895431 0 2V14C0 15.1046 0.895431 16 2 16H47.0839C48.7163 16 49.6611 14.1499 48.7041 12.8275L46.3075 9.5158C45.8212 8.84389 45.8002 7.94159 46.2545 7.24769L48.9731 3.09557Z" fill="#5A3C81"/>
<path d="M47.2999 0.5H2C1.17157 0.5 0.5 1.17157 0.5 2V14C0.5 14.8284 1.17157 15.5 2 15.5H47.0839C48.3082 15.5 49.0168 14.1124 48.299 13.1206L45.9024 9.80894C45.2946 8.96905 45.2683 7.84116 45.8362 6.9738L48.5548 2.82168C49.208 1.82408 48.4923 0.5 47.2999 0.5Z" stroke="black" stroke-opacity="0.1"/>
</svg>
