<svg width="21" height="24" viewBox="0 0 21 24" fill="none" xmlns="http://www.w3.org/2000/svg">
<path d="M20.4155 5.01709L15.5123 0.201416C15.3809 0.0723267 15.204 0 15.0196 0H2.62354C1.177 0 0 1.17682 0 2.62354V21.3765C0 22.823 1.17682 24 2.62354 24H18.0024C19.4489 24 20.6259 22.8232 20.6259 21.3765V5.5188C20.6259 5.33002 20.5501 5.14929 20.4155 5.01709V5.01709ZM15.7227 2.37927L18.2034 4.81567H15.9463C15.8231 4.81567 15.7227 4.71533 15.7227 4.5921V2.37927ZM18.0024 22.5938H2.62354C1.95245 22.5938 1.40625 22.0477 1.40625 21.3765V2.62354C1.40625 1.95227 1.95227 1.40625 2.62354 1.40625H14.3167V4.5921C14.3167 5.49078 15.0478 6.22192 15.9465 6.22192H19.2197V21.3765C19.2197 22.0477 18.6736 22.5938 18.0024 22.5938V22.5938Z" fill="black"/>
<path d="M15.1943 11.1562H5.28247C4.8941 11.1562 4.57935 11.471 4.57935 11.8594C4.57935 12.2477 4.8941 12.5625 5.28247 12.5625H15.1943C15.5827 12.5625 15.8975 12.2477 15.8975 11.8594C15.8975 11.471 15.5827 11.1562 15.1943 11.1562Z" fill="black"/>
<path d="M5.28247 15.375H13.3644C13.7527 15.375 14.0675 15.0602 14.0675 14.6719C14.0675 14.2835 13.7527 13.9688 13.3644 13.9688H5.28247C4.8941 13.9688 4.57935 14.2835 4.57935 14.6719C4.57935 15.0602 4.8941 15.375 5.28247 15.375V15.375Z" fill="black"/>
<path d="M14.3394 16.7812H5.28247C4.8941 16.7812 4.57935 17.096 4.57935 17.4844C4.57935 17.8727 4.8941 18.1875 5.28247 18.1875H14.3394C14.7276 18.1875 15.0425 17.8727 15.0425 17.4844C15.0425 17.096 14.7276 16.7812 14.3394 16.7812Z" fill="black"/>
</svg>
