<svg width="24" height="24" viewBox="0 0 24 24" fill="none" xmlns="http://www.w3.org/2000/svg">
<path fill-rule="evenodd" clip-rule="evenodd" d="M15.3333 3.11111C15.3333 2.49746 15.8308 2 16.4444 2H18.6667C20.5076 2 22 3.49238 22 5.33333V7.55556C22 8.16921 21.5025 8.66667 20.8889 8.66667C20.2752 8.66667 19.7778 8.16921 19.7778 7.55556V6.44445C19.7778 5.21715 18.7829 4.22222 17.5556 4.22222H16.4444C15.8308 4.22222 15.3333 3.72476 15.3333 3.11111ZM18.6667 22C20.5076 22 22 20.5076 22 18.6667V16.4444C22 15.8308 21.5025 15.3333 20.8889 15.3333C20.2752 15.3333 19.7778 15.8308 19.7778 16.4444V17.5556C19.7778 18.7829 18.7829 19.7778 17.5556 19.7778H16.4444C15.8308 19.7778 15.3333 20.2752 15.3333 20.8889C15.3333 21.5025 15.8308 22 16.4444 22H18.6667ZM7.55556 2C8.16921 2 8.66667 2.49746 8.66667 3.11111C8.66667 3.72476 8.1692 4.22222 7.55556 4.22222H6.44444C5.21714 4.22222 4.22222 5.21715 4.22222 6.44444V7.55556C4.22222 8.16921 3.72476 8.66667 3.11111 8.66667C2.49746 8.66667 2 8.16921 2 7.55556V5.33333C2 3.49238 3.49238 2 5.33333 2H7.55556ZM4.22222 16.4444C4.22222 15.8308 3.72476 15.3333 3.11111 15.3333C2.49746 15.3333 2 15.8308 2 16.4444V18.6667C2 20.5076 3.49238 22 5.33333 22H7.55556C8.16921 22 8.66667 21.5025 8.66667 20.8889C8.66667 20.2752 8.1692 19.7778 7.55556 19.7778H6.44444C5.21714 19.7778 4.22222 18.7829 4.22222 17.5556V16.4444ZM17.5556 8.66667C17.5556 7.43937 16.5606 6.44444 15.3333 6.44444C14.106 6.44444 13.1111 7.43937 13.1111 8.66667C13.1111 9.89397 14.106 10.8889 15.3333 10.8889C16.5606 10.8889 17.5556 9.89397 17.5556 8.66667ZM17.5556 15.3333C17.5556 14.106 16.5606 13.1111 15.3333 13.1111C14.106 13.1111 13.1111 14.106 13.1111 15.3333C13.1111 16.5606 14.106 17.5556 15.3333 17.5556C16.5606 17.5556 17.5556 16.5606 17.5556 15.3333ZM6.44444 8.66667C6.44444 7.43937 7.43937 6.44444 8.66667 6.44444C9.89396 6.44444 10.8889 7.43937 10.8889 8.66667C10.8889 9.89397 9.89396 10.8889 8.66667 10.8889C7.43937 10.8889 6.44444 9.89397 6.44444 8.66667ZM10.8889 15.3333C10.8889 14.106 9.89396 13.1111 8.66667 13.1111C7.43937 13.1111 6.44444 14.106 6.44444 15.3333C6.44444 16.5606 7.43937 17.5556 8.66667 17.5556C9.89396 17.5556 10.8889 16.5606 10.8889 15.3333Z" fill="#5A3C81"/>
</svg>
