<svg width="18" height="24" viewBox="0 0 18 24" fill="none" xmlns="http://www.w3.org/2000/svg">
<path d="M14 13.2133V4.5C14 4.3672 13.9473 4.24022 13.8535 4.14647L9.8535 0.146484C9.75975 0.0527344 9.63281 0 9.49997 0H1.99997C0.897469 0 0 0.896953 0 2.00002V17C0 18.103 0.897469 19 2.00002 19H7.02534C7.27917 21.7989 9.63652 24 12.5 24C15.5322 24 18 21.5327 18 18.5C18 15.9878 16.3048 13.8685 14 13.2133ZM9.99998 1.70705L12.293 4.00003H11C10.4482 4.00003 10 3.5513 10 3.00005V1.70705H9.99998ZM2.00002 18C1.44825 18 1.00003 17.5513 1.00003 17V2.00002C1.00003 1.44877 1.4483 1.00003 2.00002 1.00003H9V3C9 4.10302 9.89747 5.00002 11 5.00002H13V13.0253C12.8351 13.0104 12.6688 13 12.5 13C9.63656 13 7.27917 15.2011 7.02534 18H2.00002V18ZM12.5 23C10.0185 23 8.00002 20.9814 8.00002 18.5C8.00002 16.0186 10.0186 14 12.5 14C14.9814 14 17 16.0186 17 18.5C17 20.9814 14.9814 23 12.5 23Z" fill="black"/>
<path d="M13 18.293V15.5C13 15.2236 12.7764 15 12.5 15C12.2236 15 12 15.2236 12 15.5V18.5C12 18.6328 12.0527 18.7598 12.1465 18.8535L13.6465 20.3535C13.7441 20.4512 13.8721 20.5 14 20.5C14.1279 20.5 14.2559 20.4512 14.3535 20.3535C14.5489 20.1582 14.5489 19.8418 14.3535 19.6465L13 18.293Z" fill="black"/>
</svg>
