<svg width="24" height="24" viewBox="0 0 24 24" fill="none" xmlns="http://www.w3.org/2000/svg">
<path d="M12.0004 0C5.3932 0 0.00084372 5.39297 0.00084372 12C0.00084372 14.9587 1.1034 17.7763 3.11862 20.0005L0 24H12.0004C18.6076 24 24 18.607 24 12C24 5.39255 18.6072 0 12.0004 0V0ZM2.87976 22.5938L4.98236 19.8973L4.54292 19.4578C2.52071 17.4356 1.40709 14.7871 1.40709 12C1.40709 6.15863 6.15925 1.4063 12.0005 1.4063C17.8417 1.4063 22.5938 6.15863 22.5938 12C22.5938 14.6683 21.602 17.1089 19.968 18.9735L17.9419 16.9474C19.1027 15.5592 19.7345 13.8273 19.7345 12C19.7345 7.73531 16.265 4.26567 12.0004 4.26567C7.73584 4.26567 4.26632 7.73531 4.26632 12C4.26632 16.2648 7.73584 19.7344 12.0004 19.7344H19.2312C17.3367 21.5069 14.7933 22.5938 12.0004 22.5938H2.87976V22.5938ZM17.334 18.3281H12.0004C8.51122 18.3281 5.67252 15.4893 5.67252 12C5.67252 8.51067 8.51122 5.67188 12.0004 5.67188C15.4896 5.67188 18.3283 8.51067 18.3283 12C18.3283 15.1591 16.1654 16.7044 15.9754 16.9695L17.334 18.3281Z" fill="black"/>
</svg>
