<svg width="91" height="91" viewBox="0 0 91 91" fill="none" xmlns="http://www.w3.org/2000/svg">
<path d="M74.7595 90.3594H67.1562L64.0625 87.2656L64.1085 3.73438L88.4672 8.04049C88.9702 8.1294 89.4177 8.41377 89.7117 8.8315C90.0058 9.24922 90.1226 9.76635 90.0367 10.2699L76.6657 88.7506C76.589 89.2006 76.3555 89.609 76.0067 89.9034C75.6578 90.1979 75.216 90.3594 74.7595 90.3594Z" fill="#FDBF44"/>
<path d="M64.1085 3.73438L64.0625 87.2656L67.1562 90.3594H70.25V4.82009L64.1085 3.73438Z" fill="#E6AD3E"/>
<path d="M65.2227 0.640625H2.57422C1.50632 0.640625 0.640625 1.50632 0.640625 2.57422V88.4258C0.640625 89.4937 1.50632 90.3594 2.57422 90.3594H65.2227C66.2906 90.3594 67.1562 89.4937 67.1562 88.4258V2.57422C67.1562 1.50632 66.2906 0.640625 65.2227 0.640625Z" fill="white"/>
<path d="M19.9766 45.5H12.2422C10.1064 45.5 8.375 47.2314 8.375 49.3672V57.1016C8.375 59.2374 10.1064 60.9688 12.2422 60.9688H19.9766C22.1124 60.9688 23.8438 59.2374 23.8438 57.1016V49.3672C23.8438 47.2314 22.1124 45.5 19.9766 45.5Z" fill="#5A3C81"/>
<path d="M19.9766 68.7031H12.2422C10.1064 68.7031 8.375 70.4345 8.375 72.5703V80.3047C8.375 82.4405 10.1064 84.1719 12.2422 84.1719H19.9766C22.1124 84.1719 23.8438 82.4405 23.8438 80.3047V72.5703C23.8438 70.4345 22.1124 68.7031 19.9766 68.7031Z" fill="#5A3C81"/>
<path d="M17.6563 57.876C17.4532 57.876 17.252 57.836 17.0644 57.7582C16.8767 57.6805 16.7061 57.5666 16.5625 57.4229L11.9219 52.7823L14.1095 50.5946L17.5689 54.054L25.7631 44.4941L28.112 46.5078L18.8308 57.3359C18.6921 57.4977 18.5214 57.6291 18.3295 57.7218C18.1376 57.8146 17.9287 57.8666 17.7157 57.8748C17.696 57.876 17.6757 57.876 17.6563 57.876Z" fill="#BC93F1"/>
<path d="M17.6563 81.0791C17.4532 81.0791 17.252 81.0391 17.0644 80.9614C16.8767 80.8836 16.7061 80.7697 16.5625 80.626L11.9219 75.9854L14.1095 73.7978L17.5689 77.2571L25.7631 67.6973L28.112 69.7109L18.8308 80.539C18.6921 80.7008 18.5214 80.8322 18.3295 80.925C18.1376 81.0177 17.9287 81.0698 17.7157 81.0779C17.696 81.0791 17.6757 81.0791 17.6563 81.0791Z" fill="#BC93F1"/>
<path d="M31.5781 67.1562H54.7812V70.25H31.5781V67.1562Z" fill="#5A3C81"/>
<path d="M31.5781 74.8906H39.3125V77.9844H31.5781V74.8906Z" fill="#5A3C81"/>
<path d="M42.4062 74.8906H54.7812V77.9844H42.4062V74.8906Z" fill="#5A3C81"/>
<path d="M31.5781 43.9531H54.7812V47.0469H31.5781V43.9531Z" fill="#5A3C81"/>
<path d="M31.5781 51.6875H39.3125V54.7812H31.5781V51.6875Z" fill="#5A3C81"/>
<path d="M42.4062 51.6875H54.7812V54.7812H42.4062V51.6875Z" fill="#5A3C81"/>
<path d="M34.6525 6.82812L20.75 13.0274L21.9088 20.3847C23.0126 26.3727 26.3713 31.709 31.2927 35.2941L34.6651 37.7778L37.878 35.4422C42.8649 31.8588 46.2715 26.4846 47.3843 20.4455L48.5551 13.0274L34.6525 6.82812ZM34.1817 26.4961C33.8916 26.7861 33.4982 26.9491 33.088 26.9491C32.6777 26.9491 32.2843 26.7861 31.9942 26.4961L27.3536 21.8554L29.5413 19.6672L33.0883 23.214L41.2757 15.0266L43.4632 17.214L34.1817 26.4961Z" fill="#5A3C81"/>
<path d="M6.82812 5.28125H16.1094V8.375H6.82812V5.28125Z" fill="#5A3C81"/>
<path d="M6.82812 11.4688H13.0156V14.5625H6.82812V11.4688Z" fill="#5A3C81"/>
<path d="M53.2344 5.28125H56.3281V8.375H53.2344V5.28125Z" fill="#5A3C81"/>
<path d="M59.4219 5.28125H62.5156V8.375H59.4219V5.28125Z" fill="#5A3C81"/>
</svg>
