<svg width="24" height="24" viewBox="0 0 24 24" fill="none" xmlns="http://www.w3.org/2000/svg">
<g clip-path="url(#clip0_1863_6779)">
<path d="M8.05 21H2.5C1.121 21 0 19.879 0 18.5V2.5C0 1.121 1.121 0 2.5 0H14.5C15.879 0 17 1.121 17 2.5V9.53C17 9.806 16.776 10.03 16.5 10.03C16.224 10.03 16 9.807 16 9.53V2.5C16 1.673 15.327 1 14.5 1H2.5C1.673 1 1 1.673 1 2.5V18.5C1 19.327 1.673 20 2.5 20H8.05C8.326 20 8.55 20.224 8.55 20.5C8.55 20.776 8.326 21 8.05 21Z" fill="black"/>
<path d="M13.5 9H3.5C3.224 9 3 8.776 3 8.5C3 8.224 3.224 8 3.5 8H13.5C13.776 8 14 8.224 14 8.5C14 8.776 13.776 9 13.5 9Z" fill="black"/>
<path d="M9.5 13H3.5C3.224 13 3 12.776 3 12.5C3 12.224 3.224 12 3.5 12H9.5C9.776 12 10 12.224 10 12.5C10 12.776 9.776 13 9.5 13Z" fill="black"/>
<path d="M8.5 5H3.5C3.224 5 3 4.776 3 4.5C3 4.224 3.224 4 3.5 4H8.5C8.776 4 9 4.224 9 4.5C9 4.776 8.776 5 8.5 5Z" fill="black"/>
<path d="M22.5 24H11.5C10.673 24 10 23.327 10 22.5C10 22.206 10.081 21.931 10.235 21.701L15.723 12.72C15.982 12.279 16.473 12 17 12C17.527 12 18.018 12.279 18.281 12.728L23.776 21.72C23.919 21.931 24 22.206 24 22.5C24 23.327 23.327 24 22.5 24ZM17 13C16.826 13 16.666 13.09 16.582 13.233L11.077 22.241C11.022 22.323 11 22.406 11 22.5C11 22.775 11.225 23 11.5 23H22.5C22.775 23 23 22.775 23 22.5C23 22.406 22.978 22.323 22.935 22.26L17.423 13.241C17.334 13.09 17.174 13 17 13V13Z" fill="black"/>
<path d="M17 20C16.724 20 16.5 19.776 16.5 19.5V15.5C16.5 15.224 16.724 15 17 15C17.276 15 17.5 15.224 17.5 15.5V19.5C17.5 19.776 17.276 20 17 20Z" fill="black"/>
<path d="M17 22C17.2761 22 17.5 21.7761 17.5 21.5C17.5 21.2239 17.2761 21 17 21C16.7239 21 16.5 21.2239 16.5 21.5C16.5 21.7761 16.7239 22 17 22Z" fill="black"/>
</g>
<defs>
<clipPath id="clip0_1863_6779">
<rect width="24" height="24" fill="white"/>
</clipPath>
</defs>
</svg>
