<svg width="24" height="24" viewBox="0 0 24 24" fill="none" xmlns="http://www.w3.org/2000/svg">
<g clip-path="url(#clip0_1861_6767)">
<path d="M21.6735 20.7302L19.2918 18.3485C20.3382 16.4814 20.1355 14.0977 18.6839 12.4307V4.94836C18.6839 4.31639 18.1697 3.80222 17.5377 3.80222H14.7687V3.43866C14.7687 2.46558 13.977 1.67386 13.0039 1.67386H12.5778V1.25625C12.5778 0.563578 12.0142 0 11.3216 0H9.45368C8.76101 0 8.19743 0.563531 8.19743 1.25625V1.67391H7.77134C6.79826 1.67391 6.00654 2.46558 6.00654 3.4387V3.80227H3.23745C2.60548 3.80227 2.09131 4.31644 2.09131 4.94841V22.854C2.09131 23.4859 2.60548 24.0001 3.23745 24.0001H15.3663C15.56 24.0001 15.7171 23.843 15.7171 23.6492C15.7171 23.4555 15.56 23.2984 15.3663 23.2984H3.23745C2.99239 23.2984 2.79303 23.099 2.79303 22.854V4.94836C2.79303 4.7033 2.99239 4.50394 3.23745 4.50394H6.0065V4.61869C6.0065 4.94887 6.27514 5.21756 6.60537 5.21756H7.75297C7.94675 5.21756 8.10382 5.06048 8.10382 4.8667C8.10382 4.67292 7.94675 4.51584 7.75297 4.51584H6.70822V3.43866C6.70822 2.85248 7.18512 2.37558 7.77129 2.37558H13.0039C13.59 2.37558 14.0669 2.85248 14.0669 3.43866V4.5158H9.45542C9.26164 4.5158 9.10456 4.67287 9.10456 4.86666C9.10456 5.06044 9.26164 5.21752 9.45542 5.21752H14.1698C14.5 5.21752 14.7687 4.94887 14.7687 4.61864V4.50389H17.5377C17.7828 4.50389 17.9821 4.70325 17.9821 4.94831V11.7626C16.326 10.4561 14.0157 10.2764 12.1651 11.3668C11.9982 11.4652 11.9426 11.6803 12.0409 11.8472C12.1392 12.0142 12.3543 12.0697 12.5213 11.9714C14.2733 10.9391 16.5026 11.2237 17.9425 12.6637C19.6833 14.4045 19.6833 17.2369 17.9425 18.9777C17.0992 19.821 15.9781 20.2853 14.7855 20.2853C13.593 20.2853 12.4718 19.821 11.6285 18.9777C9.9935 17.3426 9.88625 14.6852 11.3845 12.9279C11.5102 12.7805 11.4926 12.559 11.3451 12.4333C11.1976 12.3076 10.9762 12.3252 10.8505 12.4727C10.0102 13.4583 9.57425 14.7163 9.62286 16.015C9.6717 17.3209 10.2078 18.5492 11.1324 19.4738C12.1082 20.4496 13.4056 20.987 14.7856 20.987C15.6859 20.987 16.551 20.7581 17.3146 20.3281L17.9822 20.9957V22.8538C17.9822 23.0988 17.7828 23.2982 17.5377 23.2982H17.0602C16.8664 23.2982 16.7093 23.4553 16.7093 23.649C16.7093 23.8428 16.8664 23.9999 17.0602 23.9999H17.5377C18.1697 23.9999 18.6839 23.4857 18.6839 22.8538V21.6974L19.695 22.7085C19.8516 22.8651 20.0572 22.9434 20.2629 22.9434C20.4686 22.9434 20.6743 22.8651 20.8309 22.7085L21.6735 21.8659C21.8252 21.7142 21.9088 21.5125 21.9088 21.2979C21.9087 21.0836 21.8252 20.8819 21.6735 20.7302V20.7302ZM8.89911 1.25625C8.89911 0.950484 9.14787 0.701719 9.45364 0.701719H11.3215C11.6273 0.701719 11.876 0.950484 11.876 1.25625V1.67391H8.89911V1.25625ZM21.1773 21.3698L20.3347 22.2125C20.2951 22.2521 20.2308 22.2521 20.1912 22.2125L17.9126 19.9339C18.0965 19.7935 18.2724 19.6402 18.4387 19.4739C18.6059 19.3067 18.7589 19.1306 18.8984 18.9474L21.1773 21.2264C21.2168 21.2659 21.2168 21.3303 21.1773 21.3698V21.3698Z" fill="black"/>
<path d="M13.315 8.0887H16.2889C16.4826 8.0887 16.6397 7.93163 16.6397 7.73784C16.6397 7.54406 16.4826 7.38698 16.2889 7.38698H13.315C13.1212 7.38698 12.9641 7.54406 12.9641 7.73784C12.9641 7.93163 13.1212 8.0887 13.315 8.0887Z" fill="black"/>
<path d="M4.6448 8.0887H11.136C11.3298 8.0887 11.4869 7.93163 11.4869 7.73784C11.4869 7.54406 11.3298 7.38698 11.136 7.38698H4.6448C4.45102 7.38698 4.29395 7.54406 4.29395 7.73784C4.29395 7.93163 4.45102 8.0887 4.6448 8.0887Z" fill="black"/>
<path d="M4.6448 9.53325H11.136C11.3298 9.53325 11.4869 9.37617 11.4869 9.18239C11.4869 8.98861 11.3298 8.83153 11.136 8.83153H4.6448C4.45102 8.83153 4.29395 8.98861 4.29395 9.18239C4.29395 9.37613 4.45102 9.53325 4.6448 9.53325Z" fill="black"/>
<path d="M8.75105 10.696C8.75105 10.5022 8.59398 10.3451 8.4002 10.3451H4.6448C4.45102 10.3451 4.29395 10.5022 4.29395 10.696C4.29395 10.8898 4.45102 11.0468 4.6448 11.0468H8.4002C8.59398 11.0468 8.75105 10.8898 8.75105 10.696Z" fill="black"/>
<path d="M13.315 9.53325H16.2889C16.4826 9.53325 16.6397 9.37617 16.6397 9.18239C16.6397 8.98861 16.4826 8.83153 16.2889 8.83153H13.315C13.1212 8.83153 12.9641 8.98861 12.9641 9.18239C12.9641 9.37613 13.1212 9.53325 13.315 9.53325Z" fill="black"/>
<path d="M5.8727 14.1143C4.93178 14.1143 4.16626 14.8798 4.16626 15.8207C4.16626 16.7617 4.93178 17.5272 5.8727 17.5272C6.81367 17.5272 7.57918 16.7617 7.57918 15.8207C7.57918 14.8798 6.81367 14.1143 5.8727 14.1143V14.1143ZM5.8727 16.8255C5.31868 16.8255 4.86798 16.3748 4.86798 15.8207C4.86798 15.2667 5.31868 14.816 5.8727 14.816C6.42671 14.816 6.87746 15.2667 6.87746 15.8207C6.87746 16.3747 6.42676 16.8255 5.8727 16.8255Z" fill="black"/>
<path d="M5.8727 18.845C4.93178 18.845 4.16626 19.6105 4.16626 20.5515C4.16626 21.4924 4.93178 22.2579 5.8727 22.2579C6.81367 22.2579 7.57918 21.4924 7.57918 20.5515C7.57918 19.6105 6.81367 18.845 5.8727 18.845V18.845ZM5.8727 21.5562C5.31868 21.5562 4.86798 21.1055 4.86798 20.5515C4.86798 19.9975 5.31868 19.5467 5.8727 19.5467C6.42671 19.5467 6.87746 19.9975 6.87746 20.5515C6.87746 21.1055 6.42676 21.5562 5.8727 21.5562Z" fill="black"/>
<path d="M8.7681 20.9024H10.3875C10.5813 20.9024 10.7383 20.7453 10.7383 20.5515C10.7383 20.3577 10.5813 20.2006 10.3875 20.2006H8.7681C8.57431 20.2006 8.41724 20.3577 8.41724 20.5515C8.41724 20.7453 8.57431 20.9024 8.7681 20.9024Z" fill="black"/>
</g>
<defs>
<clipPath id="clip0_1861_6767">
<rect width="24" height="24" fill="white"/>
</clipPath>
</defs>
</svg>
