<svg xmlns="http://www.w3.org/2000/svg" width="47.93" height="39.253" viewBox="0 0 47.93 39.253"><defs><style>.a{fill:#db710d;}.b{fill:#f58f00;}.c{fill:#fcc200;}.d{fill:#ffde47;}</style></defs><path class="a" d="M13.621,49.635v-.466a2.828,2.828,0,0,0-2.828-2.828H2.828A2.828,2.828,0,0,0,0,49.169V84.181a1.414,1.414,0,0,0,1.414,1.414H40.9V52.463a2.828,2.828,0,0,0-2.828-2.828Z" transform="translate(0 -46.341)"/><path class="b" d="M13.621,49.635v-.466a2.828,2.828,0,0,0-2.828-2.828H2.828A2.828,2.828,0,0,0,0,49.169V84.181a1.414,1.414,0,0,0,1.414,1.414H20.3V49.635Z" transform="translate(0 -46.341)"/><path class="c" d="M46.628,153.435H9.84a2.828,2.828,0,0,0-2.77,2.258L1.684,181.9a1.413,1.413,0,0,0,1.256.767H44.02a2.828,2.828,0,0,0,2.811-2.517l2.608-23.573A2.828,2.828,0,0,0,46.628,153.435Z" transform="translate(-1.526 -143.41)"/><path class="d" d="M27.307,153.435H9.84a2.828,2.828,0,0,0-2.77,2.258L1.684,181.9a1.413,1.413,0,0,0,1.256.767H24.073Z" transform="translate(-1.526 -143.41)"/></svg>