<svg xmlns="http://www.w3.org/2000/svg" width="34.348" height="16.468" viewBox="0 0 34.348 16.468"><defs><style>.a{fill:#bc272c;}</style></defs><g transform="translate(0 -132)"><g transform="translate(0 132)"><path class="a" d="M33.954,139.294h0l-7.011-6.906a1.352,1.352,0,0,0-1.9,0,1.319,1.319,0,0,0,0,1.878l4.707,4.637H1.342a1.328,1.328,0,1,0,0,2.656H29.756L25.049,146.2a1.319,1.319,0,0,0,0,1.878,1.351,1.351,0,0,0,1.9,0l7.011-6.906h0A1.32,1.32,0,0,0,33.954,139.294Z" transform="translate(0 -132)"/></g></g></svg>