<svg width="49" height="49" viewBox="0 0 49 49" fill="none" xmlns="http://www.w3.org/2000/svg">
<circle cx="24.5" cy="24.5" r="24.5" fill="#E1E1FB"/>
<path d="M35 28.92V31.92C35.0011 32.1985 34.9441 32.4741 34.8325 32.7293C34.7209 32.9845 34.5573 33.2136 34.3521 33.4018C34.1468 33.5901 33.9046 33.7335 33.6407 33.8227C33.3769 33.9119 33.0974 33.945 32.82 33.92C29.7428 33.5856 26.787 32.5341 24.19 30.85C21.7738 29.3146 19.7253 27.2661 18.19 24.85C16.5 22.2412 15.4482 19.271 15.12 16.18C15.095 15.9034 15.1279 15.6247 15.2165 15.3616C15.3051 15.0985 15.4476 14.8567 15.6348 14.6516C15.822 14.4465 16.0498 14.2827 16.3038 14.1705C16.5578 14.0583 16.8323 14.0002 17.11 14H20.11C20.5953 13.9952 21.0658 14.1671 21.4338 14.4835C21.8017 14.8 22.0421 15.2394 22.11 15.72C22.2366 16.68 22.4714 17.6227 22.81 18.53C22.9445 18.8879 22.9737 19.2769 22.8939 19.6509C22.8141 20.0248 22.6289 20.3681 22.36 20.64L21.09 21.91C22.5135 24.4135 24.5864 26.4864 27.09 27.91L28.36 26.64C28.6319 26.3711 28.9751 26.1858 29.3491 26.1061C29.7231 26.0263 30.1121 26.0554 30.47 26.19C31.3773 26.5285 32.3199 26.7634 33.28 26.89C33.7658 26.9585 34.2094 27.2032 34.5265 27.5775C34.8437 27.9518 35.0122 28.4296 35 28.92Z" stroke="black" stroke-linecap="round" stroke-linejoin="round"/>
</svg>
