<svg width="312" height="340" viewBox="0 0 312 340" fill="none" xmlns="http://www.w3.org/2000/svg">
<path d="M26.8029 217.18L31.3197 218.473L33.7856 213.981C34.8855 214.094 35.9798 214.115 37.0592 214.044L39.3632 218.614L43.9229 217.479L43.8075 212.355C44.8031 211.907 45.7597 211.378 46.6679 210.772L50.9595 213.585L54.3392 210.326L51.6779 205.953C52.3107 205.078 52.8727 204.139 53.3603 203.149L58.4838 203.444L59.7791 198.935L55.2791 196.474C55.3926 195.376 55.4131 194.283 55.3423 193.205L59.9206 190.905L58.7835 186.353L53.6506 186.469C53.2021 185.475 52.6717 184.52 52.065 183.613L54.8827 179.33L51.6184 175.956L47.2374 178.613C46.3608 177.982 45.421 177.421 44.4291 176.934L44.7231 171.819L40.2063 170.526L37.7404 175.018C36.6405 174.905 35.5462 174.884 34.4668 174.955L32.1628 170.385L27.6032 171.52L27.7186 176.644C26.7229 177.092 25.7663 177.621 24.8581 178.227L20.5665 175.414L17.1868 178.673L19.8481 183.046C19.2154 183.921 18.6533 184.86 18.1657 185.85L13.0422 185.556L11.7469 190.066L16.247 192.527C16.1334 193.625 16.113 194.718 16.1837 195.795L11.6055 198.096L12.7426 202.647L17.8754 202.532C18.3239 203.526 18.8543 204.481 19.461 205.388L16.6434 209.672L19.9077 213.046L24.2886 210.389C25.1652 211.021 26.105 211.582 27.097 212.069L26.8029 217.184V217.18ZM24.136 191.171C25.9785 184.761 32.6764 181.055 39.099 182.894C45.5196 184.733 49.2325 191.42 47.39 197.832C45.5476 204.243 38.8496 207.948 32.4271 206.109C26.0064 204.269 22.2936 197.583 24.136 191.171Z" fill="#5A3C81"/>
<path d="M39.3613 219.027C39.2087 219.027 39.0636 218.941 38.9928 218.8L36.8117 214.471C35.8942 214.52 34.9543 214.501 34.0164 214.417L31.6807 218.674C31.5877 218.843 31.3904 218.925 31.2061 218.871L26.6893 217.578C26.5032 217.524 26.3804 217.351 26.3916 217.16L26.6707 212.314C25.8295 211.889 25.0256 211.408 24.2718 210.88L20.1235 213.397C19.9597 213.496 19.7476 213.47 19.6136 213.332L16.3493 209.958C16.2153 209.821 16.1948 209.607 16.3009 209.447L18.9697 205.39C18.4634 204.609 18.0093 203.792 17.6167 202.952L12.7556 203.06C12.7556 203.06 12.75 203.06 12.7463 203.06C12.5583 203.06 12.3926 202.932 12.3461 202.748L11.209 198.196C11.1625 198.01 11.2518 197.815 11.423 197.729L15.7593 195.552C15.7109 194.634 15.7295 193.698 15.8133 192.76L11.5496 190.428C11.3802 190.335 11.2983 190.138 11.3523 189.954L12.6476 185.445C12.6997 185.261 12.8616 185.135 13.0664 185.148L17.9181 185.426C18.3443 184.587 18.8263 183.784 19.3549 183.031L16.835 178.89C16.7345 178.727 16.7624 178.515 16.9001 178.381L20.2798 175.122C20.4194 174.989 20.6316 174.97 20.7916 175.074L24.8562 177.738C25.6378 177.233 26.4567 176.78 27.2979 176.388L27.19 171.535C27.1863 171.343 27.3147 171.172 27.5026 171.126L32.0622 169.991C32.2502 169.944 32.4438 170.033 32.5294 170.204L34.7105 174.533C35.6318 174.485 36.5679 174.504 37.5059 174.587L39.8415 170.331C39.9345 170.162 40.1318 170.08 40.3161 170.134L44.8329 171.427C45.019 171.481 45.1418 171.654 45.1306 171.845L44.8515 176.689C45.6927 177.114 46.4967 177.595 47.2522 178.123L51.4006 175.605C51.5643 175.507 51.7765 175.533 51.9105 175.67L55.1748 179.044C55.3088 179.182 55.3293 179.396 55.2232 179.555L52.5544 183.613C53.0606 184.393 53.5147 185.211 53.9074 186.051L58.7685 185.943C58.7685 185.943 58.7741 185.943 58.7778 185.943C58.9658 185.943 59.1314 186.071 59.1779 186.255L60.3151 190.807C60.3616 190.993 60.2723 191.188 60.101 191.273L55.7648 193.451C55.8131 194.37 55.7945 195.307 55.7108 196.241L59.9745 198.573C60.1438 198.666 60.2257 198.863 60.1718 199.047L58.8764 203.556C58.8243 203.74 58.655 203.864 58.4577 203.853L53.6059 203.575C53.1797 204.414 52.6977 205.217 52.1692 205.969L54.6891 210.111C54.7896 210.274 54.7616 210.486 54.6239 210.62L51.2442 213.879C51.1065 214.012 50.8925 214.031 50.7324 213.927L46.6679 211.263C45.8881 211.768 45.0674 212.221 44.2262 212.613L44.3341 217.466C44.3378 217.658 44.2094 217.829 44.0214 217.875L39.4618 219.01C39.4283 219.018 39.3948 219.023 39.3613 219.023V219.027ZM37.0573 213.633C37.2118 213.633 37.3551 213.721 37.4258 213.86L39.5809 218.137L43.5003 217.162L43.3924 212.366C43.3887 212.201 43.4855 212.05 43.6343 211.982C44.6058 211.545 45.5475 211.023 46.4352 210.432C46.573 210.341 46.7516 210.339 46.8893 210.432L50.9055 213.065L53.8125 210.263L51.3224 206.17C51.2368 206.029 51.2442 205.85 51.341 205.717C51.9552 204.866 52.5098 203.942 52.9862 202.973C53.0588 202.824 53.2039 202.733 53.3789 202.744L58.173 203.019L59.2878 199.142L55.0762 196.838C54.931 196.758 54.8472 196.6 54.864 196.435C54.9738 195.363 54.9961 194.287 54.9254 193.237C54.9142 193.072 55.0036 192.917 55.1506 192.843L59.4348 190.692L58.4577 186.779L53.6543 186.887C53.4868 186.892 53.3379 186.796 53.2691 186.645C52.8317 185.675 52.3106 184.735 51.7169 183.849C51.6258 183.711 51.6239 183.533 51.7169 183.396L54.3541 179.388L51.5476 176.486L47.4477 178.972C47.3062 179.057 47.1276 179.05 46.9936 178.953C46.1412 178.34 45.2162 177.787 44.2448 177.311C44.0959 177.238 44.0047 177.082 44.0159 176.919L44.2913 172.133L40.4073 171.02L38.0995 175.224C38.0195 175.369 37.8669 175.453 37.6957 175.436C36.62 175.327 35.5406 175.304 34.4928 175.375C34.3216 175.386 34.1727 175.297 34.0982 175.15L31.9431 170.873L28.0237 171.849L28.1317 176.644C28.1354 176.809 28.0386 176.96 27.8879 177.029C26.9164 177.465 25.9747 177.985 25.087 178.578C24.9493 178.669 24.7706 178.671 24.6329 178.578L20.6167 175.945L17.7097 178.747L20.1998 182.84C20.2854 182.981 20.278 183.16 20.1812 183.293C19.5671 184.144 19.0125 185.068 18.536 186.038C18.4634 186.186 18.3127 186.277 18.1433 186.266L13.3492 185.991L12.2345 189.869L16.446 192.172C16.5912 192.252 16.675 192.41 16.6582 192.576C16.5465 193.651 16.5261 194.727 16.5968 195.775C16.608 195.94 16.5186 196.095 16.3716 196.169L12.0874 198.32L13.0645 202.233L17.866 202.125C18.0298 202.12 18.1824 202.216 18.2513 202.367C18.6868 203.335 19.2097 204.275 19.8034 205.163C19.8946 205.301 19.8965 205.479 19.8034 205.616L17.1663 209.626L19.9728 212.528L24.0727 210.042C24.2141 209.957 24.3947 209.964 24.5268 210.061C25.3792 210.674 26.3041 211.227 27.2756 211.703C27.4245 211.775 27.5138 211.931 27.5045 212.095L27.2291 216.881L31.1131 217.994L33.4208 213.789C33.5008 213.644 33.6553 213.561 33.8247 213.578C34.9022 213.687 35.9798 213.71 37.0294 213.639C37.0387 213.639 37.048 213.639 37.0573 213.639V213.633ZM35.7806 206.995C34.6212 206.995 33.458 206.833 32.3135 206.504C25.6844 204.606 21.8376 197.677 23.7396 191.058C24.6608 187.851 26.7768 185.196 29.6987 183.58C32.6206 181.963 36.0003 181.579 39.2106 182.498C45.8397 184.397 49.6865 191.325 47.7845 197.945C46.8633 201.152 44.7473 203.807 41.8254 205.423C39.9438 206.464 37.8743 206.993 35.7806 206.993V206.995ZM24.5305 191.286C22.7532 197.469 26.3469 203.942 32.5405 205.715C35.5406 206.573 38.6969 206.215 41.4253 204.706C44.1554 203.196 46.1319 200.715 46.9936 197.72C48.7709 191.537 45.1772 185.064 38.9835 183.292C35.9835 182.433 32.8271 182.792 30.0988 184.302C27.3686 185.813 25.3922 188.293 24.5305 191.288V191.286Z" fill="white"/>
<path d="M26.4104 306.418L34.1394 308.631L38.3584 300.943C40.2399 301.136 42.1122 301.173 43.9602 301.05L47.9019 308.872L55.7035 306.931L55.5062 298.163C57.2091 297.398 58.8468 296.491 60.4008 295.456L67.7427 300.27L73.5269 294.695L68.9729 287.211C70.056 285.711 71.0163 284.108 71.8501 282.412L80.6176 282.915L82.8341 275.199L75.133 270.987C75.3266 269.109 75.3638 267.24 75.241 265.397L83.076 261.462L81.1312 253.673L72.3489 253.87C71.5821 252.17 70.6758 250.535 69.6373 248.984L74.4593 241.655L68.8743 235.88L61.3779 240.426C59.876 239.345 58.2699 238.386 56.5708 237.554L57.0751 228.801L49.3461 226.589L45.1271 234.277C43.2455 234.083 41.3733 234.046 39.5253 234.169L35.5835 226.347L27.782 228.289L27.9792 237.056C26.2764 237.822 24.6386 238.728 23.0846 239.763L15.7427 234.949L9.95854 240.525L14.5126 248.009C13.4294 249.508 12.4691 251.111 11.6354 252.808L2.86789 252.304L0.651362 260.02L8.35245 264.232C8.1589 266.11 8.12167 267.979 8.2445 269.824L0.409424 273.759L2.35424 281.548L11.1366 281.351C11.9034 283.051 12.8116 284.686 13.8482 286.237L9.02615 293.567L14.6112 299.341L22.1076 294.795C23.6095 295.876 25.2156 296.835 26.9147 297.667L26.4104 306.42V306.418ZM21.847 261.911C24.9997 250.942 36.462 244.599 47.4515 247.747C58.4393 250.894 64.7929 262.337 61.6403 273.308C58.4877 284.277 47.0254 290.62 36.0358 287.473C25.0481 284.325 18.6944 272.882 21.847 261.911Z" fill="#5A3C81"/>
<path d="M47.9037 309.285C47.7511 309.285 47.606 309.199 47.5352 309.058L43.7145 301.478C42.0339 301.574 40.3106 301.541 38.591 301.379L34.5022 308.83C34.4092 308.999 34.2119 309.08 34.0276 309.027L26.2986 306.814C26.1125 306.76 25.9897 306.587 26.0009 306.396L26.4903 297.914C24.9438 297.141 23.4661 296.259 22.0926 295.285L14.8289 299.69C14.6651 299.789 14.453 299.763 14.319 299.625L8.73392 293.851C8.59992 293.714 8.57945 293.5 8.68553 293.34L13.3587 286.237C12.4225 284.814 11.5888 283.313 10.8779 281.767L2.36722 281.957C2.16436 281.962 2.00431 281.832 1.95778 281.644L0.0129686 273.856C-0.033558 273.67 0.055773 273.475 0.226991 273.39L7.82013 269.577C7.72336 267.9 7.75686 266.181 7.91877 264.461L0.455902 260.379C0.286545 260.286 0.204658 260.089 0.258629 259.905L2.47516 252.189C2.52727 252.005 2.68732 251.879 2.8939 251.892L11.3897 252.38C12.1639 250.836 13.0479 249.363 14.0212 247.99L9.60862 240.739C9.50812 240.575 9.53603 240.363 9.67375 240.229L15.4579 234.654C15.5957 234.52 15.8097 234.502 15.9697 234.606L23.0846 239.271C24.5102 238.336 26.0139 237.504 27.5623 236.794L27.3725 228.298C27.3688 228.107 27.4972 227.936 27.6851 227.889L35.4867 225.948C35.6747 225.901 35.8682 225.99 35.9538 226.161L39.7728 233.742C41.4533 233.645 43.1748 233.678 44.8981 233.84L48.9869 226.39C49.0799 226.221 49.2772 226.139 49.4614 226.193L57.1905 228.406C57.3766 228.46 57.4994 228.632 57.4882 228.824L56.9988 237.305C58.5453 238.078 60.023 238.961 61.3965 239.934L68.6602 235.529C68.824 235.43 69.0361 235.457 69.1701 235.594L74.7552 241.368C74.8892 241.506 74.9096 241.72 74.8036 241.879L70.1304 248.982C71.0647 250.403 71.8984 251.905 72.6112 253.452L81.1219 253.263C81.1219 253.263 81.1275 253.263 81.1312 253.263C81.3192 253.263 81.4848 253.391 81.5313 253.575L83.4761 261.363C83.5227 261.549 83.4333 261.744 83.2621 261.83L75.669 265.642C75.7657 267.32 75.7322 269.038 75.5703 270.759L83.0332 274.841C83.2026 274.934 83.2844 275.131 83.2305 275.315L81.0139 283.03C80.9618 283.214 80.7925 283.339 80.5952 283.328L72.0994 282.839C71.3252 284.383 70.4412 285.858 69.466 287.229L73.8805 294.481C73.981 294.644 73.9531 294.856 73.8153 294.99L68.0312 300.566C67.8934 300.699 67.6794 300.718 67.5194 300.614L60.4045 295.949C58.9808 296.881 57.4771 297.714 55.9286 298.425L56.1185 306.922C56.1222 307.113 55.9938 307.284 55.8058 307.33L48.0042 309.272C47.9707 309.279 47.9372 309.285 47.9037 309.285ZM43.962 300.64C44.1165 300.64 44.2598 300.727 44.3305 300.867L48.1252 308.395L55.2884 306.613L55.0986 298.174C55.0949 298.009 55.1917 297.859 55.3406 297.79C57.0192 297.036 58.6458 296.136 60.1737 295.114C60.3115 295.023 60.4901 295.022 60.6278 295.114L67.6962 299.748L73.0076 294.63L68.623 287.426C68.5374 287.285 68.5448 287.107 68.6416 286.973C69.7042 285.503 70.659 283.909 71.4834 282.233C71.556 282.085 71.7012 281.994 71.8761 282.005L80.3142 282.49L82.3502 275.406L74.9376 271.352C74.7924 271.272 74.7086 271.114 74.7254 270.948C74.9152 269.09 74.9525 267.233 74.8315 265.427C74.8203 265.261 74.9096 265.107 75.0567 265.033L82.5977 261.244L80.8129 254.093L72.36 254.283C72.1888 254.288 72.0436 254.192 71.9747 254.041C71.2192 252.365 70.3184 250.742 69.2967 249.214C69.2036 249.077 69.2036 248.899 69.2948 248.761L73.9363 241.707L68.8091 236.404L61.5937 240.779C61.4523 240.865 61.2736 240.857 61.1396 240.761C59.6675 239.702 58.0707 238.747 56.3921 237.924C56.2432 237.851 56.152 237.695 56.1631 237.532L56.6489 229.108L49.5526 227.075L45.4918 234.476C45.4118 234.62 45.2554 234.704 45.0879 234.687C43.2269 234.496 41.3658 234.461 39.5569 234.581C39.3856 234.593 39.2368 234.503 39.1623 234.357L35.3695 226.828L28.2062 228.61L28.3961 237.049C28.3998 237.214 28.3049 237.365 28.1523 237.433C26.4754 238.188 24.8489 239.087 23.3191 240.107C23.1814 240.198 23.0027 240.2 22.865 240.107L15.7985 235.473L10.487 240.592L14.8698 247.795C14.9555 247.936 14.948 248.115 14.8512 248.248C13.7904 249.718 12.8338 251.312 12.0094 252.988C11.9368 253.137 11.7879 253.228 11.6167 253.216L3.17864 252.731L1.14263 259.816L8.55525 263.87C8.70042 263.95 8.78417 264.108 8.76742 264.273C8.57573 266.131 8.54037 267.989 8.66133 269.795C8.6725 269.96 8.58317 270.114 8.43615 270.189L0.895113 273.977L2.67987 281.128L11.1328 280.938C11.2947 280.929 11.4492 281.03 11.5181 281.18C12.2718 282.852 13.1726 284.476 14.1961 286.007C14.2873 286.144 14.2892 286.323 14.198 286.46L9.55651 293.515L14.6837 298.817L21.8991 294.442C22.0405 294.356 22.2192 294.364 22.3532 294.46C23.8253 295.519 25.4221 296.474 27.1008 297.297C27.2496 297.37 27.3408 297.526 27.3297 297.689L26.8439 306.113L33.9402 308.146L38.001 300.746C38.081 300.601 38.2336 300.517 38.4049 300.534C40.2641 300.725 42.1251 300.761 43.936 300.64C43.9453 300.64 43.9546 300.64 43.9639 300.64H43.962ZM41.738 288.688C39.8156 288.688 37.8633 288.424 35.9259 287.869C30.5046 286.317 26.0158 282.75 23.2819 277.826C20.548 272.903 19.9003 267.21 21.4543 261.8C23.0083 256.39 26.5815 251.907 31.5133 249.177C36.4452 246.448 42.1456 245.801 47.5669 247.353C52.9882 248.904 57.4771 252.471 60.211 257.395C62.943 262.318 63.5925 268.011 62.0385 273.421C59.3846 282.657 50.9168 288.688 41.738 288.688ZM21.8488 261.913L22.2452 262.027C20.7508 267.227 21.3743 272.697 24.0021 277.429C26.628 282.161 30.9439 285.587 36.153 287.079C38.014 287.612 39.8919 287.867 41.738 287.867C50.5595 287.867 58.6961 282.072 61.2476 273.196C62.742 267.996 62.1186 262.526 59.4907 257.794C56.8648 253.062 52.549 249.636 47.3398 248.144C42.1307 246.652 36.6517 247.275 31.9135 249.898C27.1733 252.52 23.7415 256.828 22.2471 262.029L21.8507 261.915L21.8488 261.913Z" fill="white"/>
<path d="M187.947 200.656C191.267 196.253 169.379 188.371 169.673 172.902C169.943 158.769 188.41 155.139 187.867 142.191C187.284 128.336 165.849 125.625 165.839 111.503C165.832 100.62 178.56 98.9809 179.593 87.3392C180.834 73.3527 162.834 71.4929 156.986 53.0215C151.524 35.7706 164.084 27.4824 154.921 13.823C153.728 12.045 146.291 1.41949 135.744 1.26528C118.587 1.0126 96.4236 28.5099 99.686 52.3006C102.433 72.3327 121.152 74.7499 122.248 96.0305C123.176 114.069 109.974 117.086 114.269 131.078C119.352 147.636 139.541 148.939 143.695 167.6C145.87 177.374 141.017 180.098 144.999 187.011C153.408 201.613 184.292 205.509 187.951 200.656H187.947Z" fill="#5A3C81"/>
<path d="M180.082 203.049C179.286 203.049 178.444 203.023 177.56 202.967C167.619 202.354 150.647 197.652 144.638 187.217C142.423 183.373 142.859 180.735 143.363 177.681C143.791 175.08 144.279 172.131 143.289 167.691C141.141 158.041 134.536 153.024 128.149 148.171C122.337 143.757 116.326 139.192 113.873 131.199C111.621 123.868 114.033 119.539 116.826 114.528C119.383 109.939 122.281 104.737 121.835 96.0528C121.272 85.1115 116.102 79.3501 110.629 73.2487C105.703 67.7566 100.609 62.0788 99.2747 52.3563C97.2275 37.4205 104.962 22.5552 112.885 13.6242C120.178 5.40287 128.525 0.748772 135.748 0.854674C146.287 1.01074 153.852 11.495 155.261 13.5945C160.251 21.0299 158.901 27.0254 157.472 33.3721C156.19 39.0684 154.863 44.9599 157.377 52.8988C160.172 61.7295 165.782 66.7162 170.728 71.1176C176.058 75.859 180.661 79.9521 180.002 87.3763C179.475 93.3142 176.018 96.6845 172.671 99.9433C169.368 103.163 166.247 106.205 166.251 111.503C166.256 118.454 171.523 122.5 177.099 126.783C182.449 130.894 187.982 135.144 188.278 142.174C188.556 148.784 184.139 152.922 179.464 157.301C174.918 161.559 170.218 165.961 170.086 172.91C169.915 181.935 177.491 188.349 183.024 193.033C186.989 196.388 189.853 198.813 188.278 200.901C187.229 202.293 184.297 203.047 180.084 203.047L180.082 203.049ZM135.513 1.67402C128.663 1.67402 120.455 6.32812 113.501 14.1686C105.699 22.964 98.0799 37.584 100.09 52.2448C101.389 61.7184 106.397 67.3015 111.241 72.7006C116.57 78.6385 122.078 84.7808 122.655 96.0101C123.115 104.93 120.154 110.24 117.545 114.927C114.844 119.775 112.511 123.961 114.66 130.959C117.037 138.698 122.676 142.982 128.648 147.517C135.154 152.459 141.88 157.569 144.095 167.512C145.116 172.109 144.618 175.141 144.177 177.814C143.678 180.834 143.285 183.217 145.353 186.809C151.2 196.962 167.847 201.546 177.611 202.148C182.738 202.464 186.572 201.798 187.619 200.411C188.727 198.943 185.974 196.613 182.492 193.663C176.833 188.873 169.085 182.312 169.264 172.897C169.403 165.602 174.233 161.078 178.902 156.705C183.438 152.458 187.72 148.446 187.457 142.211C187.178 135.565 182.04 131.617 176.598 127.437C171.11 123.219 165.434 118.861 165.428 111.505C165.424 105.857 168.817 102.552 172.098 99.3562C175.336 96.2015 178.684 92.9389 179.183 87.3057C179.805 80.2921 175.346 76.3254 170.181 71.7326C165.154 67.2606 159.458 62.194 156.594 53.1478C154.012 44.9971 155.425 38.7266 156.67 33.1937C158.12 26.756 159.37 21.1971 154.578 14.0552C153.208 12.0152 145.866 1.82823 135.739 1.67959C135.666 1.67959 135.591 1.67959 135.517 1.67959L135.513 1.67402Z" fill="white"/>
<path d="M180.975 198.159C180.934 198.159 180.893 198.153 180.853 198.14C167.591 194.038 159.223 188.26 155.981 180.964C153.519 175.421 154.917 170.951 156.396 166.217C157.883 161.461 159.421 156.543 157.221 149.977C154.894 143.03 150.714 139.909 146.674 136.89C142.751 133.96 139.046 131.192 137.397 125.267C135.063 116.886 139.429 110.927 143.652 105.166C147.739 99.5884 151.967 93.8196 150.339 85.7153C149.026 79.1791 144.753 75.3667 140.229 71.3313C135.336 66.967 129.792 62.0194 127.196 52.8078C125.266 45.9557 125.467 38.6262 127.794 31.0199C127.859 30.8025 128.09 30.6799 128.307 30.7468C128.525 30.8137 128.648 31.0422 128.581 31.2596C126.301 38.7117 126.102 45.887 127.989 52.5848C130.518 61.5642 135.733 66.2164 140.776 70.7163C145.405 74.8465 149.778 78.7481 151.144 85.5518C152.842 94.0109 148.507 99.9266 144.314 105.649C140.019 111.511 135.962 117.047 138.19 125.044C139.764 130.699 143.36 133.386 147.167 136.229C151.31 139.324 155.594 142.523 158.002 149.713C160.286 156.53 158.708 161.578 157.182 166.459C155.749 171.04 154.396 175.368 156.733 180.625C159.875 187.695 168.071 193.321 181.094 197.35C181.312 197.417 181.433 197.648 181.366 197.865C181.312 198.042 181.148 198.155 180.974 198.155L180.975 198.159Z" fill="white"/>
<path d="M195.819 260.763C197.315 257.36 178.338 252.273 162.385 228.3C152.726 213.784 149.012 199.61 145.637 186.303C137.291 153.379 144.141 146.928 135.288 131.606C124.663 113.218 111.262 120.295 96.1387 101.359C77.4853 78.0031 91.4396 59.186 72.3208 38.1543C61.8747 26.6612 43.3106 16.4408 26.9946 21.6801C17.1198 24.8516 6.80207 34.0929 6.53221 44.1535C6.27166 53.8631 15.5658 57.1051 22.837 68.929C35.8216 90.0405 20.3339 102.689 28.61 124.085C39.8397 153.123 75.1087 147.268 90.1852 181.87C96.2579 195.807 91.0413 197.915 96.4253 211.224C114.595 256.137 192.866 267.491 195.823 260.763H195.819Z" fill="#5A3C81"/>
<path d="M188.208 262.963C187.969 262.963 187.735 262.961 187.504 262.957C176.563 262.796 157.452 259.009 139.422 250.914C124.155 244.061 104.238 231.637 96.042 211.378C93.4068 204.866 93.2821 200.953 93.1629 197.168C93.0308 193.046 92.908 189.151 89.8074 182.036C82.0598 164.252 69.0547 157.296 56.4758 150.566C44.7622 144.299 33.6964 138.38 28.2267 124.234C24.4022 114.346 25.6026 106.294 26.7639 98.5071C28.1467 89.2324 29.4531 80.4704 22.4872 69.1445C19.6472 64.5257 16.4964 61.2279 13.716 58.3184C9.38341 53.7832 5.95905 50.2011 6.12283 44.1443C6.3964 33.922 16.8872 24.4967 26.87 21.29C43.1859 16.0488 62.0255 26.2153 72.628 37.8794C82.3855 48.6144 83.5859 58.6082 84.857 69.1909C86.0648 79.2497 87.3155 89.6523 96.4626 101.104C103.752 110.232 110.499 113.201 117.024 116.074C123.759 119.037 130.12 121.837 135.647 131.402C140.352 139.543 140.663 145.109 141.134 153.533C141.56 161.151 142.09 170.63 146.04 186.203C149.261 198.913 152.914 213.319 162.731 228.073C172.805 243.213 183.964 250.701 190.631 255.175C194.664 257.882 196.884 259.372 196.199 260.931C195.471 262.586 191.6 262.965 188.209 262.965L188.208 262.963ZM36.1623 20.6936C33.1064 20.6936 30.0691 21.1246 27.1194 22.0722C17.4083 25.1916 7.20597 34.3084 6.94356 44.1666C6.79095 49.8815 10.1092 53.354 14.3096 57.7517C17.118 60.6909 20.3004 64.0222 23.1869 68.7153C30.3111 80.2976 28.9823 89.2026 27.5772 98.6297C26.4308 106.31 25.2471 114.253 28.9934 123.938C34.3552 137.8 45.2889 143.649 56.8647 149.842C69.5665 156.636 82.7 163.663 90.5612 181.707C93.725 188.968 93.8571 193.124 93.9855 197.142C94.1028 200.855 94.2256 204.695 96.805 211.071C110.932 245.993 163.71 261.785 187.515 262.136C192.84 262.214 195.093 261.393 195.443 260.6C195.853 259.671 193.469 258.071 190.169 255.857C183.452 251.349 172.208 243.804 162.043 228.528C152.148 213.658 148.478 199.179 145.239 186.405C141.271 170.754 140.739 161.232 140.311 153.58C139.846 145.273 139.539 139.785 134.933 131.812C129.541 122.482 123.586 119.86 116.691 116.826C110.383 114.05 103.233 110.903 95.8168 101.617C86.5245 89.983 85.2609 79.4615 84.0382 69.2894C82.7819 58.8405 81.5964 48.973 72.0157 38.433C63.5143 29.0802 49.6475 20.6954 36.1641 20.6954L36.1623 20.6936Z" fill="white"/>
<path d="M182.17 259.147C182.116 259.147 182.062 259.136 182.01 259.115C166.429 252.59 153.966 244.887 144.966 236.218C137.678 229.197 132.469 221.347 129.487 212.883C126.366 204.026 126.015 195.641 125.672 187.535C125.16 175.399 124.678 163.936 115.008 152.342C108.197 144.175 101.069 140.942 94.1755 137.815C86.4948 134.332 79.2423 131.041 74.2602 121.068C70.7949 114.13 70.7316 108.558 70.6609 102.106C70.5902 95.7351 70.5083 88.5152 67.3594 77.9083C64.2421 67.4055 59.2265 57.408 52.456 48.1908C52.322 48.0069 52.3611 47.7505 52.5453 47.6167C52.7295 47.483 52.9864 47.522 53.1222 47.7059C59.9505 56.9992 65.007 67.0822 68.1522 77.6761C71.3346 88.3944 71.4146 95.6756 71.4872 102.098C71.5617 108.711 71.6212 113.933 75.0009 120.702C79.8527 130.413 86.6493 133.496 94.5198 137.066C101.171 140.084 108.71 143.504 115.645 151.817C125.493 163.624 125.981 175.221 126.498 187.5C126.837 195.546 127.187 203.868 130.267 212.61C136.833 231.246 154.349 246.639 182.332 258.357C182.543 258.445 182.641 258.686 182.552 258.896C182.487 259.054 182.332 259.149 182.172 259.149L182.17 259.147Z" fill="white"/>
<path d="M160.818 0H289.375C293.073 0 296.075 2.99683 296.075 6.68852V257.296C296.075 260.462 293.501 263.032 290.33 263.032H160.818V0Z" fill="white"/>
<path d="M282.59 0.449646H158.069C155.105 0.449646 152.702 2.84862 152.702 5.8079V257.898C152.702 260.858 155.105 263.257 158.069 263.257H282.59C285.554 263.257 287.957 260.858 287.957 257.898V5.8079C287.957 2.84862 285.554 0.449646 282.59 0.449646Z" fill="#5A3C81"/>
<path d="M192.929 83.3112H177.646C176.622 83.3112 175.792 84.1396 175.792 85.1616V99.0143C175.792 100.036 176.622 100.865 177.646 100.865H192.929C193.953 100.865 194.783 100.036 194.783 99.0143V85.1616C194.783 84.1396 193.953 83.3112 192.929 83.3112Z" fill="white"/>
<path d="M217.026 83.3112H201.542C200.518 83.3112 199.688 84.1396 199.688 85.1616V99.0143C199.688 100.036 200.518 100.865 201.542 100.865H217.026C218.05 100.865 218.88 100.036 218.88 99.0143V85.1616C218.88 84.1396 218.05 83.3112 217.026 83.3112Z" fill="white"/>
<path d="M240.972 83.5359H225.89C224.867 83.5359 224.037 84.3644 224.037 85.3864V99.2391C224.037 100.261 224.867 101.09 225.89 101.09H240.972C241.996 101.09 242.826 100.261 242.826 99.2391V85.3864C242.826 84.3644 241.996 83.5359 240.972 83.5359Z" fill="white"/>
<path d="M264.643 83.5359H249.561C248.537 83.5359 247.708 84.3644 247.708 85.3864V99.2391C247.708 100.261 248.537 101.09 249.561 101.09H264.643C265.667 101.09 266.497 100.261 266.497 99.2391V85.3864C266.497 84.3644 265.667 83.5359 264.643 83.5359Z" fill="white"/>
<path d="M192.929 107.167H177.646C176.622 107.167 175.792 107.995 175.792 109.017V122.87C175.792 123.892 176.622 124.721 177.646 124.721H192.929C193.953 124.721 194.783 123.892 194.783 122.87V109.017C194.783 107.995 193.953 107.167 192.929 107.167Z" fill="white"/>
<path d="M217.026 107.167H201.542C200.518 107.167 199.688 107.995 199.688 109.017V122.87C199.688 123.892 200.518 124.721 201.542 124.721H217.026C218.05 124.721 218.88 123.892 218.88 122.87V109.017C218.88 107.995 218.05 107.167 217.026 107.167Z" fill="white"/>
<path d="M240.972 107.392H225.89C224.867 107.392 224.037 108.22 224.037 109.242V123.095C224.037 124.117 224.867 124.945 225.89 124.945H240.972C241.996 124.945 242.826 124.117 242.826 123.095V109.242C242.826 108.22 241.996 107.392 240.972 107.392Z" fill="white"/>
<path d="M264.643 107.392H249.561C248.537 107.392 247.708 108.22 247.708 109.242V123.095C247.708 124.117 248.537 124.945 249.561 124.945H264.643C265.667 124.945 266.497 124.117 266.497 123.095V109.242C266.497 108.22 265.667 107.392 264.643 107.392Z" fill="white"/>
<path d="M193.416 131.024H178.133C177.11 131.024 176.28 131.853 176.28 132.875V146.728C176.28 147.75 177.11 148.578 178.133 148.578H193.416C194.44 148.578 195.27 147.75 195.27 146.728V132.875C195.27 131.853 194.44 131.024 193.416 131.024Z" fill="white"/>
<path d="M217.106 131.024H201.622C200.598 131.024 199.768 131.853 199.768 132.875V146.728C199.768 147.75 200.598 148.578 201.622 148.578H217.106C218.13 148.578 218.96 147.75 218.96 146.728V132.875C218.96 131.853 218.13 131.024 217.106 131.024Z" fill="white"/>
<path d="M241.454 131.249H226.372C225.348 131.249 224.519 132.078 224.519 133.1V146.952C224.519 147.974 225.348 148.803 226.372 148.803H241.454C242.478 148.803 243.308 147.974 243.308 146.952V133.1C243.308 132.078 242.478 131.249 241.454 131.249Z" fill="white"/>
<path d="M265.125 131.249H250.043C249.019 131.249 248.189 132.078 248.189 133.1V146.952C248.189 147.974 249.019 148.803 250.043 148.803H265.125C266.149 148.803 266.979 147.974 266.979 146.952V133.1C266.979 132.078 266.149 131.249 265.125 131.249Z" fill="white"/>
<path d="M193.415 154.88H178.132C177.108 154.88 176.278 155.709 176.278 156.731V170.583C176.278 171.605 177.108 172.434 178.132 172.434H193.415C194.438 172.434 195.268 171.605 195.268 170.583V156.731C195.268 155.709 194.438 154.88 193.415 154.88Z" fill="white"/>
<path d="M217.517 154.88H202.033C201.01 154.88 200.18 155.709 200.18 156.731V170.583C200.18 171.605 201.01 172.434 202.033 172.434H217.517C218.541 172.434 219.371 171.605 219.371 170.583V156.731C219.371 155.709 218.541 154.88 217.517 154.88Z" fill="white"/>
<path d="M241.453 155.105H226.37C225.347 155.105 224.517 155.934 224.517 156.956V170.808C224.517 171.83 225.347 172.659 226.37 172.659H241.453C242.476 172.659 243.306 171.83 243.306 170.808V156.956C243.306 155.934 242.476 155.105 241.453 155.105Z" fill="white"/>
<path d="M265.125 155.105H250.043C249.019 155.105 248.189 155.934 248.189 156.956V170.808C248.189 171.83 249.019 172.659 250.043 172.659H265.125C266.149 172.659 266.979 171.83 266.979 170.808V156.956C266.979 155.934 266.149 155.105 265.125 155.105Z" fill="white"/>
<path d="M191.04 84.0153H177.164C176.14 84.0153 175.31 84.8438 175.31 85.8658V99.7185C175.31 100.74 176.14 101.569 177.164 101.569H191.04C192.064 101.569 192.894 100.74 192.894 99.7185V85.8658C192.894 84.8438 192.064 84.0153 191.04 84.0153Z" fill="#5A3C81"/>
<path d="M191.04 101.981H177.164C175.915 101.981 174.899 100.967 174.899 99.7203V85.8677C174.899 84.621 175.915 83.6066 177.164 83.6066H191.04C192.289 83.6066 193.305 84.621 193.305 85.8677V99.7203C193.305 100.967 192.289 101.981 191.04 101.981ZM177.164 84.4278C176.369 84.4278 175.722 85.0743 175.722 85.8677V99.7203C175.722 100.514 176.369 101.16 177.164 101.16H191.04C191.835 101.16 192.482 100.514 192.482 99.7203V85.8677C192.482 85.0743 191.835 84.4278 191.04 84.4278H177.164Z" fill="white"/>
<path d="M214.936 84.0153H201.06C200.036 84.0153 199.206 84.8438 199.206 85.8658V99.7185C199.206 100.74 200.036 101.569 201.06 101.569H214.936C215.96 101.569 216.79 100.74 216.79 99.7185V85.8658C216.79 84.8438 215.96 84.0153 214.936 84.0153Z" fill="#5A3C81"/>
<path d="M214.936 101.981H201.06C199.811 101.981 198.795 100.967 198.795 99.7203V85.8677C198.795 84.621 199.811 83.6066 201.06 83.6066H214.936C216.185 83.6066 217.201 84.621 217.201 85.8677V99.7203C217.201 100.967 216.185 101.981 214.936 101.981ZM201.06 84.4278C200.265 84.4278 199.617 85.0743 199.617 85.8677V99.7203C199.617 100.514 200.265 101.16 201.06 101.16H214.936C215.731 101.16 216.378 100.514 216.378 99.7203V85.8677C216.378 85.0743 215.731 84.4278 214.936 84.4278H201.06Z" fill="white"/>
<path d="M239.284 84.2401H225.408C224.385 84.2401 223.555 85.0686 223.555 86.0906V99.9433C223.555 100.965 224.385 101.794 225.408 101.794H239.284C240.308 101.794 241.138 100.965 241.138 99.9433V86.0906C241.138 85.0686 240.308 84.2401 239.284 84.2401Z" fill="#5A3C81"/>
<path d="M239.284 102.206H225.408C224.159 102.206 223.143 101.192 223.143 99.9451V86.0925C223.143 84.8458 224.159 83.8314 225.408 83.8314H239.284C240.533 83.8314 241.549 84.8458 241.549 86.0925V99.9451C241.549 101.192 240.533 102.206 239.284 102.206ZM225.408 84.6526C224.614 84.6526 223.966 85.2991 223.966 86.0925V99.9451C223.966 100.738 224.614 101.385 225.408 101.385H239.284C240.079 101.385 240.727 100.738 240.727 99.9451V86.0925C240.727 85.2991 240.079 84.6526 239.284 84.6526H225.408Z" fill="white"/>
<path d="M262.955 84.2401H249.079C248.055 84.2401 247.226 85.0686 247.226 86.0906V99.9433C247.226 100.965 248.055 101.794 249.079 101.794H262.955C263.979 101.794 264.809 100.965 264.809 99.9433V86.0906C264.809 85.0686 263.979 84.2401 262.955 84.2401Z" fill="#5A3C81"/>
<path d="M262.955 102.206H249.079C247.83 102.206 246.814 101.192 246.814 99.9451V86.0925C246.814 84.8458 247.83 83.8314 249.079 83.8314H262.955C264.204 83.8314 265.22 84.8458 265.22 86.0925V99.9451C265.22 101.192 264.204 102.206 262.955 102.206ZM249.079 84.6526C248.284 84.6526 247.637 85.2991 247.637 86.0925V99.9451C247.637 100.738 248.284 101.385 249.079 101.385H262.955C263.75 101.385 264.398 100.738 264.398 99.9451V86.0925C264.398 85.2991 263.75 84.6526 262.955 84.6526H249.079Z" fill="white"/>
<path d="M191.04 107.871H177.164C176.14 107.871 175.31 108.7 175.31 109.722V123.574C175.31 124.596 176.14 125.425 177.164 125.425H191.04C192.064 125.425 192.894 124.596 192.894 123.574V109.722C192.894 108.7 192.064 107.871 191.04 107.871Z" fill="#5A3C81"/>
<path d="M191.04 125.837H177.164C175.915 125.837 174.899 124.823 174.899 123.576V109.723C174.899 108.477 175.915 107.462 177.164 107.462H191.04C192.289 107.462 193.305 108.477 193.305 109.723V123.576C193.305 124.823 192.289 125.837 191.04 125.837ZM177.164 108.284C176.369 108.284 175.722 108.93 175.722 109.723V123.576C175.722 124.369 176.369 125.016 177.164 125.016H191.04C191.835 125.016 192.482 124.369 192.482 123.576V109.723C192.482 108.93 191.835 108.284 191.04 108.284H177.164Z" fill="white"/>
<path d="M214.936 107.871H201.06C200.036 107.871 199.206 108.7 199.206 109.722V123.574C199.206 124.596 200.036 125.425 201.06 125.425H214.936C215.96 125.425 216.79 124.596 216.79 123.574V109.722C216.79 108.7 215.96 107.871 214.936 107.871Z" fill="#5A3C81"/>
<path d="M214.936 125.837H201.06C199.811 125.837 198.795 124.823 198.795 123.576V109.723C198.795 108.477 199.811 107.462 201.06 107.462H214.936C216.185 107.462 217.201 108.477 217.201 109.723V123.576C217.201 124.823 216.185 125.837 214.936 125.837ZM201.06 108.284C200.265 108.284 199.617 108.93 199.617 109.723V123.576C199.617 124.369 200.265 125.016 201.06 125.016H214.936C215.731 125.016 216.378 124.369 216.378 123.576V109.723C216.378 108.93 215.731 108.284 214.936 108.284H201.06Z" fill="white"/>
<path d="M239.284 108.098H225.408C224.385 108.098 223.555 108.926 223.555 109.948V123.801C223.555 124.823 224.385 125.651 225.408 125.651H239.284C240.308 125.651 241.138 124.823 241.138 123.801V109.948C241.138 108.926 240.308 108.098 239.284 108.098Z" fill="#5A3C81"/>
<path d="M239.284 126.062H225.408C224.159 126.062 223.143 125.048 223.143 123.801V109.948C223.143 108.702 224.159 107.687 225.408 107.687H239.284C240.533 107.687 241.549 108.702 241.549 109.948V123.801C241.549 125.048 240.533 126.062 239.284 126.062ZM225.408 108.508C224.614 108.508 223.966 109.155 223.966 109.948V123.801C223.966 124.594 224.614 125.241 225.408 125.241H239.284C240.079 125.241 240.727 124.594 240.727 123.801V109.948C240.727 109.155 240.079 108.508 239.284 108.508H225.408Z" fill="white"/>
<path d="M262.955 108.096H249.079C248.055 108.096 247.226 108.924 247.226 109.946V123.799C247.226 124.821 248.055 125.65 249.079 125.65H262.955C263.979 125.65 264.809 124.821 264.809 123.799V109.946C264.809 108.924 263.979 108.096 262.955 108.096Z" fill="#5A3C81"/>
<path d="M262.955 126.062H249.079C247.83 126.062 246.814 125.048 246.814 123.801V109.948C246.814 108.702 247.83 107.687 249.079 107.687H262.955C264.204 107.687 265.22 108.702 265.22 109.948V123.801C265.22 125.048 264.204 126.062 262.955 126.062ZM249.079 108.508C248.284 108.508 247.637 109.155 247.637 109.948V123.801C247.637 124.594 248.284 125.241 249.079 125.241H262.955C263.75 125.241 264.398 124.594 264.398 123.801V109.948C264.398 109.155 263.75 108.508 262.955 108.508H249.079Z" fill="white"/>
<path d="M191.49 131.73H177.614C176.591 131.73 175.761 132.559 175.761 133.581V147.434C175.761 148.456 176.591 149.284 177.614 149.284H191.49C192.514 149.284 193.344 148.456 193.344 147.434V133.581C193.344 132.559 192.514 131.73 191.49 131.73Z" fill="#5A3C81"/>
<path d="M191.49 149.695H177.614C176.366 149.695 175.349 148.68 175.349 147.434V133.581C175.349 132.334 176.366 131.32 177.614 131.32H191.49C192.739 131.32 193.755 132.334 193.755 133.581V147.434C193.755 148.68 192.739 149.695 191.49 149.695ZM177.614 132.141C176.82 132.141 176.172 132.788 176.172 133.581V147.434C176.172 148.227 176.82 148.874 177.614 148.874H191.49C192.285 148.874 192.933 148.227 192.933 147.434V133.581C192.933 132.788 192.285 132.141 191.49 132.141H177.614Z" fill="white"/>
<path d="M215.386 131.73H201.51C200.487 131.73 199.657 132.559 199.657 133.581V147.434C199.657 148.456 200.487 149.284 201.51 149.284H215.386C216.41 149.284 217.24 148.456 217.24 147.434V133.581C217.24 132.559 216.41 131.73 215.386 131.73Z" fill="#5A3C81"/>
<path d="M215.388 149.695H201.512C200.263 149.695 199.247 148.68 199.247 147.434V133.581C199.247 132.334 200.263 131.32 201.512 131.32H215.388C216.637 131.32 217.653 132.334 217.653 133.581V147.434C217.653 148.68 216.637 149.695 215.388 149.695ZM201.512 132.141C200.718 132.141 200.07 132.788 200.07 133.581V147.434C200.07 148.227 200.718 148.874 201.512 148.874H215.388C216.183 148.874 216.831 148.227 216.831 147.434V133.581C216.831 132.788 216.183 132.141 215.388 132.141H201.512Z" fill="white"/>
<path d="M239.735 131.955H225.859C224.835 131.955 224.005 132.784 224.005 133.806V147.658C224.005 148.68 224.835 149.509 225.859 149.509H239.735C240.759 149.509 241.588 148.68 241.588 147.658V133.806C241.588 132.784 240.759 131.955 239.735 131.955Z" fill="#5A3C81"/>
<path d="M239.735 149.921H225.859C224.61 149.921 223.594 148.907 223.594 147.66V133.808C223.594 132.561 224.61 131.547 225.859 131.547H239.735C240.984 131.547 242 132.561 242 133.808V147.66C242 148.907 240.984 149.921 239.735 149.921ZM225.859 132.368C225.064 132.368 224.416 133.014 224.416 133.808V147.66C224.416 148.454 225.064 149.1 225.859 149.1H239.735C240.529 149.1 241.177 148.454 241.177 147.66V133.808C241.177 133.014 240.529 132.368 239.735 132.368H225.859Z" fill="white"/>
<path d="M263.406 131.955H249.53C248.506 131.955 247.676 132.784 247.676 133.806V147.658C247.676 148.68 248.506 149.509 249.53 149.509H263.406C264.429 149.509 265.259 148.68 265.259 147.658V133.806C265.259 132.784 264.429 131.955 263.406 131.955Z" fill="#5A3C81"/>
<path d="M263.406 149.92H249.53C248.281 149.92 247.265 148.905 247.265 147.658V133.806C247.265 132.559 248.281 131.545 249.53 131.545H263.406C264.654 131.545 265.671 132.559 265.671 133.806V147.658C265.671 148.905 264.654 149.92 263.406 149.92ZM249.53 132.366C248.735 132.366 248.087 133.012 248.087 133.806V147.658C248.087 148.452 248.735 149.098 249.53 149.098H263.406C264.2 149.098 264.848 148.452 264.848 147.658V133.806C264.848 133.012 264.2 132.366 263.406 132.366H249.53Z" fill="white"/>
<path d="M191.49 155.586H177.614C176.591 155.586 175.761 156.415 175.761 157.437V171.289C175.761 172.311 176.591 173.14 177.614 173.14H191.49C192.514 173.14 193.344 172.311 193.344 171.289V157.437C193.344 156.415 192.514 155.586 191.49 155.586Z" fill="#5A3C81"/>
<path d="M191.49 173.552H177.614C176.366 173.552 175.349 172.538 175.349 171.291V157.439C175.349 156.192 176.366 155.177 177.614 155.177H191.49C192.739 155.177 193.755 156.192 193.755 157.439V171.291C193.755 172.538 192.739 173.552 191.49 173.552ZM177.614 155.999C176.82 155.999 176.172 156.645 176.172 157.439V171.291C176.172 172.085 176.82 172.731 177.614 172.731H191.49C192.285 172.731 192.933 172.085 192.933 171.291V157.439C192.933 156.645 192.285 155.999 191.49 155.999H177.614Z" fill="white"/>
<path d="M215.386 155.586H201.51C200.487 155.586 199.657 156.415 199.657 157.437V171.289C199.657 172.311 200.487 173.14 201.51 173.14H215.386C216.41 173.14 217.24 172.311 217.24 171.289V157.437C217.24 156.415 216.41 155.586 215.386 155.586Z" fill="#5A3C81"/>
<path d="M215.386 173.552H201.51C200.262 173.552 199.245 172.538 199.245 171.291V157.439C199.245 156.192 200.262 155.177 201.51 155.177H215.386C216.635 155.177 217.651 156.192 217.651 157.439V171.291C217.651 172.538 216.635 173.552 215.386 173.552ZM201.51 155.999C200.716 155.999 200.068 156.645 200.068 157.439V171.291C200.068 172.085 200.716 172.731 201.51 172.731H215.386C216.181 172.731 216.829 172.085 216.829 171.291V157.439C216.829 156.645 216.181 155.999 215.386 155.999H201.51Z" fill="white"/>
<path d="M239.733 155.811H225.857C224.833 155.811 224.003 156.64 224.003 157.662V171.514C224.003 172.536 224.833 173.365 225.857 173.365H239.733C240.757 173.365 241.587 172.536 241.587 171.514V157.662C241.587 156.64 240.757 155.811 239.733 155.811Z" fill="#5A3C81"/>
<path d="M239.735 173.777H225.859C224.61 173.777 223.594 172.763 223.594 171.516V157.663C223.594 156.417 224.61 155.402 225.859 155.402H239.735C240.984 155.402 242 156.417 242 157.663V171.516C242 172.763 240.984 173.777 239.735 173.777ZM225.859 156.223C225.064 156.223 224.416 156.87 224.416 157.663V171.516C224.416 172.309 225.064 172.956 225.859 172.956H239.735C240.529 172.956 241.177 172.309 241.177 171.516V157.663C241.177 156.87 240.529 156.223 239.735 156.223H225.859Z" fill="white"/>
<path d="M263.406 155.811H249.53C248.506 155.811 247.676 156.64 247.676 157.662V171.514C247.676 172.536 248.506 173.365 249.53 173.365H263.406C264.429 173.365 265.259 172.536 265.259 171.514V157.662C265.259 156.64 264.429 155.811 263.406 155.811Z" fill="#5A3C81"/>
<path d="M263.406 173.777H249.53C248.281 173.777 247.265 172.763 247.265 171.516V157.663C247.265 156.417 248.281 155.402 249.53 155.402H263.406C264.654 155.402 265.671 156.417 265.671 157.663V171.516C265.671 172.763 264.654 173.777 263.406 173.777ZM249.53 156.223C248.735 156.223 248.087 156.87 248.087 157.663V171.516C248.087 172.309 248.735 172.956 249.53 172.956H263.406C264.2 172.956 264.848 172.309 264.848 171.516V157.663C264.848 156.87 264.2 156.223 263.406 156.223H249.53Z" fill="white"/>
<path d="M233.498 179.035H210.583C209.938 179.035 209.416 179.557 209.416 180.2V189.536C209.416 190.179 209.938 190.701 210.583 190.701H233.498C234.143 190.701 234.665 190.179 234.665 189.536V180.2C234.665 179.557 234.143 179.035 233.498 179.035Z" fill="#5A3C81"/>
<path d="M233.496 191.112H210.583C209.712 191.112 209.003 190.404 209.003 189.534V180.2C209.003 179.33 209.712 178.623 210.583 178.623H233.496C234.367 178.623 235.076 179.33 235.076 180.2V189.534C235.076 190.404 234.367 191.112 233.496 191.112ZM210.583 179.446C210.166 179.446 209.827 179.784 209.827 180.2V189.534C209.827 189.95 210.166 190.289 210.583 190.289H233.496C233.913 190.289 234.252 189.95 234.252 189.534V180.2C234.252 179.784 233.913 179.446 233.496 179.446H210.583Z" fill="white"/>
<path d="M282.591 263.667H158.069C154.883 263.667 152.291 261.079 152.291 257.898V5.80785C152.291 2.62709 154.883 0.0390015 158.069 0.0390015H282.591C285.777 0.0390015 288.37 2.62709 288.37 5.80785V257.898C288.37 261.079 285.777 263.667 282.591 263.667ZM158.069 0.862062C155.337 0.862062 153.113 3.08042 153.113 5.80971V257.898C153.113 260.626 155.335 262.844 158.069 262.844H282.591C285.323 262.844 287.546 260.626 287.546 257.898V5.80785C287.546 3.08042 285.323 0.860204 282.591 0.860204H158.069V0.862062Z" fill="white"/>
<path d="M210.486 209.648H236.43C238.516 209.648 240.209 211.339 240.209 213.422V264.347C240.209 265.237 239.485 265.96 238.594 265.96H206.675C205.897 265.96 205.264 265.328 205.264 264.552V214.861C205.264 211.983 207.604 209.648 210.486 209.648Z" fill="#5A3C81"/>
<path d="M238.596 266.372H206.677C205.672 266.372 204.855 265.557 204.855 264.553V214.863C204.855 211.762 207.382 209.237 210.49 209.237H236.433C238.745 209.237 240.624 211.114 240.624 213.423V264.349C240.624 265.466 239.714 266.374 238.596 266.374V266.372ZM210.488 210.061C207.836 210.061 205.677 212.216 205.677 214.863V264.553C205.677 265.103 206.126 265.551 206.677 265.551H238.596C239.26 265.551 239.8 265.012 239.8 264.349V213.423C239.8 211.569 238.289 210.061 236.431 210.061H210.488Z" fill="white"/>
<path d="M227.433 219.831H217.264C215.975 219.831 214.93 220.874 214.93 222.161V232.313C214.93 233.6 215.975 234.643 217.264 234.643H227.433C228.722 234.643 229.767 233.6 229.767 232.313V222.161C229.767 220.874 228.722 219.831 227.433 219.831Z" fill="white"/>
<path d="M266.139 15.7552H175.381C173.675 15.7552 172.292 17.136 172.292 18.8393V72.0856C172.292 73.7889 173.675 75.1697 175.381 75.1697H266.139C267.846 75.1697 269.229 73.7889 269.229 72.0856V18.8393C269.229 17.136 267.846 15.7552 266.139 15.7552Z" fill="#5A3C81"/>
<path d="M266.139 75.5822H175.381C173.449 75.5822 171.878 74.0141 171.878 72.0856V18.8412C171.878 16.9127 173.449 15.3446 175.381 15.3446H266.139C268.071 15.3446 269.642 16.9127 269.642 18.8412V72.0856C269.642 74.0141 268.071 75.5822 266.139 75.5822ZM175.383 16.1677C173.907 16.1677 172.705 17.3679 172.705 18.8412V72.0856C172.705 73.5589 173.905 74.7591 175.383 74.7591H266.141C267.617 74.7591 268.819 73.5589 268.819 72.0856V18.8412C268.819 17.3679 267.617 16.1677 266.141 16.1677H175.383Z" fill="white"/>
<path d="M194.734 52.0162C197.123 52.0162 199.059 50.0831 199.059 47.6984C199.059 45.3138 197.123 43.3806 194.734 43.3806C192.346 43.3806 190.409 45.3138 190.409 47.6984C190.409 50.0831 192.346 52.0162 194.734 52.0162Z" fill="white"/>
<path d="M208.328 51.8119C210.716 51.8119 212.653 49.8787 212.653 47.4941C212.653 45.1094 210.716 43.1763 208.328 43.1763C205.939 43.1763 204.002 45.1094 204.002 47.4941C204.002 49.8787 205.939 51.8119 208.328 51.8119Z" fill="white"/>
<path d="M222.127 51.6057C224.516 51.6057 226.452 49.6725 226.452 47.2878C226.452 44.9032 224.516 42.97 222.127 42.97C219.739 42.97 217.802 44.9032 217.802 47.2878C217.802 49.6725 219.739 51.6057 222.127 51.6057Z" fill="white"/>
<path d="M235.721 51.4013C238.109 51.4013 240.046 49.4682 240.046 47.0835C240.046 44.6988 238.109 42.7657 235.721 42.7657C233.332 42.7657 231.396 44.6988 231.396 47.0835C231.396 49.4682 233.332 51.4013 235.721 51.4013Z" fill="white"/>
<path d="M249.107 50.9888C251.496 50.9888 253.432 49.0557 253.432 46.671C253.432 44.2864 251.496 42.3532 249.107 42.3532C246.718 42.3532 244.782 44.2864 244.782 46.671C244.782 49.0557 246.718 50.9888 249.107 50.9888Z" fill="white"/>
<path d="M172.883 319.661C172.679 319.661 172.502 319.509 172.476 319.301C172.448 319.076 172.608 318.87 172.833 318.842C208.781 314.359 247.359 284.905 247.745 284.608C247.925 284.468 248.184 284.502 248.324 284.682C248.463 284.862 248.43 285.121 248.249 285.258C247.862 285.557 209.103 315.145 172.935 319.656C172.919 319.658 172.9 319.659 172.883 319.659V319.661Z" fill="white"/>
<path d="M169.783 326.077C169.563 326.077 169.381 325.904 169.372 325.685C169.36 325.458 169.537 325.265 169.764 325.255C197.857 323.962 234.323 301.262 234.688 301.034C234.881 300.913 235.134 300.971 235.255 301.164C235.376 301.355 235.318 301.61 235.125 301.73C234.758 301.961 198.108 324.774 169.8 326.079C169.794 326.079 169.787 326.079 169.781 326.079L169.783 326.077Z" fill="white"/>
<path d="M166.615 323.65C165.873 323.65 165.13 323.372 164.559 322.814C163.399 321.683 163.381 319.821 164.514 318.664C165.648 317.508 167.512 317.488 168.672 318.619C169.831 319.75 169.85 321.612 168.716 322.77C168.141 323.357 167.378 323.65 166.615 323.65ZM165.136 322.227C165.971 323.043 167.313 323.026 168.128 322.194C168.943 321.361 168.93 320.022 168.097 319.206C167.261 318.39 165.919 318.407 165.104 319.24C164.289 320.072 164.302 321.411 165.136 322.227Z" fill="white"/>
<path d="M255.412 283.558C255.412 283.558 255.395 283.558 255.388 283.558C255.241 283.549 255.109 283.461 255.044 283.33L251.465 276.08C251.405 275.959 251.409 275.814 251.474 275.697C251.541 275.578 251.662 275.5 251.796 275.489L260.614 274.701C260.768 274.687 260.923 274.765 261.003 274.898C261.085 275.034 261.081 275.203 260.995 275.335L255.756 283.372C255.68 283.489 255.55 283.56 255.412 283.56V283.558ZM252.468 276.253L255.462 282.317L259.843 275.595L252.468 276.253Z" fill="white"/>
<path d="M304.723 75.2051C304.617 75.2051 304.513 75.1642 304.433 75.0843C304.273 74.9245 304.273 74.6625 304.433 74.5028L305.87 73.0684C306.03 72.9087 306.292 72.9087 306.452 73.0684C306.612 73.2282 306.612 73.4902 306.452 73.65L305.015 75.0843C304.935 75.1642 304.829 75.2051 304.725 75.2051H304.723Z" fill="white"/>
<path d="M310.152 69.7836C310.046 69.7836 309.942 69.7427 309.861 69.6628C309.701 69.5031 309.701 69.2411 309.861 69.0813L311.298 67.647C311.458 67.4872 311.721 67.4872 311.881 67.647C312.041 67.8068 312.041 68.0687 311.881 68.2285L310.444 69.6628C310.364 69.7427 310.258 69.7836 310.154 69.7836H310.152Z" fill="white"/>
<path d="M311.589 75.2051C311.482 75.2051 311.378 75.1642 311.298 75.0843L309.861 73.65C309.701 73.4902 309.701 73.2282 309.861 73.0684C310.022 72.9087 310.284 72.9087 310.444 73.0684L311.881 74.5028C312.041 74.6625 312.041 74.9245 311.881 75.0843C311.801 75.1642 311.695 75.2051 311.59 75.2051H311.589Z" fill="white"/>
<path d="M306.16 69.7836C306.054 69.7836 305.95 69.7427 305.87 69.6628L304.433 68.2285C304.273 68.0687 304.273 67.8068 304.433 67.647C304.593 67.4872 304.855 67.4872 305.015 67.647L306.452 69.0813C306.612 69.2411 306.612 69.5031 306.452 69.6628C306.372 69.7427 306.266 69.7836 306.162 69.7836H306.16Z" fill="white"/>
<path d="M8.47131 135.816C8.41362 135.816 8.35592 135.805 8.30195 135.779C8.09537 135.684 8.00418 135.441 8.09723 135.235L8.9403 133.388C9.03521 133.182 9.27901 133.09 9.48559 133.183C9.69217 133.278 9.78336 133.522 9.69031 133.728L8.84724 135.575C8.77838 135.725 8.62764 135.816 8.47131 135.816Z" fill="white"/>
<path d="M11.6539 128.841C11.5962 128.841 11.5385 128.83 11.4846 128.804C11.278 128.71 11.1868 128.466 11.2799 128.26L12.1229 126.413C12.2178 126.207 12.4616 126.116 12.6682 126.209C12.8748 126.303 12.966 126.547 12.8729 126.753L12.0299 128.6C11.961 128.75 11.8103 128.841 11.6539 128.841Z" fill="white"/>
<path d="M14.9013 133.416C14.8436 133.416 14.7859 133.404 14.7319 133.378L12.882 132.537C12.6755 132.442 12.5843 132.199 12.6773 131.992C12.7722 131.786 13.016 131.695 13.2226 131.788L15.0725 132.63C15.2791 132.724 15.3703 132.968 15.2772 133.174C15.2084 133.325 15.0576 133.416 14.9013 133.416Z" fill="white"/>
<path d="M7.91496 130.239C7.85726 130.239 7.79957 130.227 7.7456 130.201L5.8957 129.36C5.68912 129.265 5.59793 129.022 5.69098 128.815C5.7859 128.609 6.0297 128.518 6.23628 128.611L8.08617 129.453C8.29275 129.547 8.38394 129.791 8.29089 129.997C8.22203 130.148 8.07129 130.239 7.91496 130.239Z" fill="white"/>
<path d="M26.9722 158.353C25.3382 158.353 24.0076 157.026 24.0076 155.393C24.0076 153.76 25.3364 152.433 26.9722 152.433C28.6081 152.433 29.9369 153.76 29.9369 155.393C29.9369 157.026 28.6081 158.353 26.9722 158.353ZM26.9722 153.258C25.7923 153.258 24.832 154.217 24.832 155.395C24.832 156.573 25.7923 157.531 26.9722 157.531C28.1522 157.531 29.1125 156.573 29.1125 155.395C29.1125 154.217 28.1522 153.258 26.9722 153.258Z" fill="white"/>
<path d="M82.5325 252.003C74.7178 262.814 68.7494 281.297 64.1972 302.79C63.8976 304.205 60.5012 329.159 61.8858 329.594C90.7193 338.64 92.7795 338.64 112.14 339.874C117.024 340.184 137.68 339.874 151.999 339.469C153.24 339.433 154.308 338.631 154.241 337.392C152.466 304.876 149.373 265.672 149.373 265.672L82.5325 252.003Z" fill="#5A3C81"/>
<path d="M154.239 337.802C154.022 337.802 153.841 337.633 153.828 337.414C152.155 306.788 149.28 269.769 148.985 266.014L82.7111 252.462C75.6986 262.285 69.6055 279.246 64.5992 302.877C64.1656 304.922 61.2493 327.524 62.1091 329.25C62.2599 329.349 62.3325 329.538 62.2766 329.718C62.2078 329.934 61.977 330.056 61.7593 329.988C61.2791 329.837 60.5552 329.611 61.9975 316.518C62.6954 310.195 63.6278 303.481 63.7915 302.708C68.8592 278.789 75.051 261.65 82.1956 251.767C82.2905 251.635 82.4543 251.572 82.6125 251.606L149.453 265.274C149.633 265.312 149.767 265.462 149.78 265.644C149.812 266.036 152.894 305.223 154.649 337.373C154.662 337.6 154.487 337.793 154.26 337.806C154.252 337.806 154.245 337.806 154.237 337.806L154.239 337.802Z" fill="white"/>
<path d="M166.025 171.128C166.025 171.128 184.093 183.267 192.538 180.982C204.421 177.764 209.653 147.543 210.164 144.86C210.676 142.178 212.965 128.574 215.34 123.498C217.571 118.727 218.93 113.844 219.646 110.842C220.078 109.032 221.312 108.157 222.537 108.343C223.612 108.506 224.325 109.348 223.72 112.046C223.021 115.167 222.399 118.305 221.828 120.975C221.647 121.815 221.305 122.61 221.898 122.012C223.277 120.622 225.509 119.074 227.759 118.322C228.747 117.991 236.625 109.471 238.719 110.517C240.593 111.451 229.912 123.13 230.342 124.526C231.399 127.968 230.794 132.568 229.121 136.719C226.274 143.787 221.722 142.993 220.934 146.321C220.147 149.648 216.042 191.864 212.755 199.591C208.03 210.705 162.715 202.594 162.715 202.594L166.027 171.126L166.025 171.128Z" fill="#5A3C81"/>
<path d="M192.505 205.878C178.973 205.878 163.723 203.196 162.64 203.002C162.428 202.965 162.281 202.768 162.303 202.555L165.616 171.087C165.631 170.944 165.72 170.818 165.85 170.758C165.981 170.697 166.135 170.708 166.254 170.79C166.433 170.91 184.26 182.799 192.428 180.588C202.575 177.842 207.881 154.884 209.692 145.143L209.759 144.788C209.816 144.485 209.896 144.043 209.997 143.491C210.773 139.222 212.837 127.879 214.966 123.329C217.123 118.718 218.483 113.945 219.246 110.753C219.704 108.837 221.051 107.708 222.598 107.942C223.195 108.033 223.648 108.298 223.944 108.731C224.422 109.428 224.48 110.545 224.122 112.142C223.683 114.106 223.277 116.053 222.886 117.935C222.659 119.028 222.442 120.079 222.23 121.068C222.224 121.098 222.217 121.127 222.209 121.157C223.529 119.983 225.488 118.653 227.627 117.937C227.876 117.835 228.981 116.824 229.955 115.933C233.915 112.304 237.321 109.367 238.901 110.154C239.119 110.262 239.264 110.45 239.322 110.693C239.601 111.873 237.652 114.593 234.406 118.931C232.851 121.012 230.72 123.862 230.738 124.436C231.76 127.753 231.299 132.412 229.499 136.877C227.811 141.067 225.477 142.614 223.772 143.744C222.527 144.571 221.627 145.167 221.331 146.419C221.109 147.358 220.586 151.707 219.927 157.212C218.267 171.048 215.491 194.205 213.131 199.757C211.121 204.485 202.258 205.88 192.503 205.88L192.505 205.878ZM163.163 202.257C167.527 203 208.054 209.594 212.373 199.433C214.689 193.99 217.456 170.905 219.11 157.112C219.799 151.363 220.298 147.211 220.53 146.228C220.903 144.658 222.021 143.917 223.318 143.056C225.023 141.927 227.145 140.52 228.738 136.567C230.468 132.271 230.921 127.816 229.947 124.646C229.722 123.914 230.811 122.361 233.748 118.435C235.659 115.879 238.858 111.602 238.518 110.868C237.332 110.288 232.726 114.506 230.513 116.535C228.961 117.956 228.259 118.589 227.889 118.714C225.529 119.504 223.344 121.14 222.19 122.303C222.042 122.454 221.731 122.768 221.39 122.575C221.044 122.378 221.143 122.004 221.29 121.439C221.334 121.27 221.385 121.083 221.426 120.891C221.636 119.905 221.855 118.855 222.083 117.765C222.473 115.879 222.879 113.928 223.32 111.959C223.622 110.615 223.603 109.684 223.266 109.192C223.099 108.949 222.847 108.807 222.475 108.752C221.373 108.585 220.4 109.463 220.048 110.94C219.278 114.169 217.901 119 215.714 123.675C213.63 128.128 211.581 139.394 210.81 143.636C210.71 144.192 210.628 144.636 210.57 144.94L210.505 145.292C208.666 155.187 203.245 178.513 192.648 181.382C191.885 181.588 191.047 181.683 190.158 181.683C181.98 181.683 169.247 173.72 166.366 171.847L163.165 202.259L163.163 202.257Z" fill="white"/>
<path d="M89.9841 154.702C111.764 145.002 153.856 147.012 183.385 178.649C186.858 182.368 176.827 210.428 167.885 208.498C159.981 206.792 153.538 204.818 152.935 209.386C152.101 215.698 157.772 266.276 149.516 280.541C134.767 306.024 90.7769 302.217 68.1426 289.795C62.1668 286.516 68.4423 277.488 72.8362 248.04C76.1099 226.106 78.0156 207.93 73.964 214.941C71.9746 218.382 51.1641 197.689 53.3379 191.509C58.1022 177.956 66.4807 165.169 89.986 154.7L89.9841 154.702Z" fill="#E9A240"/>
<path d="M205.392 147.562L222.834 149.923C224.016 190.062 220.188 218.901 167.885 208.498L174.942 171.172C194.444 184.759 201.706 168.233 205.392 147.562Z" fill="#E9A240"/>
<path d="M58.1674 181.502C32.7434 218.393 47.3584 293.829 81.8178 294.392L80.9301 261.78C78.0454 258.136 76.5901 222.141 82.0393 210.722L58.1674 181.504V181.502Z" fill="#E9A240"/>
<path d="M66.6316 289.048C66.5944 289.048 66.5572 289.043 66.52 289.034C66.3004 288.972 66.172 288.746 66.2334 288.526C71.3718 270.131 74.2341 240.685 75.1981 219.261C75.2093 219.034 75.3972 218.858 75.628 218.869C75.8551 218.88 76.0319 219.072 76.0207 219.298C75.0529 240.767 72.1832 270.285 67.0262 288.747C66.9759 288.929 66.8103 289.048 66.6298 289.048H66.6316Z" fill="#5A3C81"/>
<path d="M103.177 151.38C103.412 150.516 111.978 143.426 109.734 127.487C109.734 127.487 98.1469 111.762 101.67 104.826C105.193 97.8885 104.897 87.6364 116.731 87.551C128.568 87.4674 135.528 92.768 138.258 99.6591C140.989 106.55 141.707 113.458 141.96 117.469C142.146 120.438 141.748 127.076 141.528 130.324C141.452 131.443 140.68 132.388 139.598 132.691L136.021 133.692C134.856 134.019 134.06 135.092 134.084 136.299L134.218 142.681C134.776 158.284 129.714 156.116 126.005 156.957C116.532 159.109 101.938 155.954 103.179 151.38H103.177Z" fill="#5A3C81"/>
<path d="M119.13 158.068C112.682 158.068 106.04 156.482 103.63 153.977C102.822 153.138 102.528 152.201 102.779 151.272C102.837 151.057 103.032 150.821 103.462 150.3C105.373 147.985 111.178 140.95 109.339 127.647C108.327 126.257 97.8026 111.529 101.301 104.64C102.137 102.996 102.77 101.114 103.382 99.293C105.381 93.3514 107.448 87.2072 116.728 87.1404C127.505 87.0679 135.497 91.5715 138.64 99.5086C140.693 104.69 141.947 110.723 142.369 117.443C142.554 120.38 142.178 126.792 141.938 130.352C141.85 131.639 140.955 132.738 139.708 133.087L136.131 134.088C135.147 134.363 134.473 135.27 134.495 136.29L134.629 142.672C135.119 156.367 131.201 156.77 127.742 157.125C127.163 157.184 126.614 157.24 126.094 157.359C123.958 157.844 121.557 158.068 119.129 158.068H119.13ZM103.572 151.501C103.401 152.149 103.615 152.773 104.225 153.407C107.322 156.629 118.47 158.247 125.914 156.556C126.482 156.428 127.081 156.365 127.658 156.305C130.907 155.971 134.268 155.625 133.807 142.694L133.673 136.307C133.645 134.911 134.564 133.672 135.91 133.297L139.487 132.295C140.399 132.041 141.054 131.236 141.117 130.296C141.357 126.757 141.731 120.386 141.549 117.495C141.132 110.862 139.896 104.911 137.877 99.8114C134.866 92.2069 127.17 87.8965 116.737 87.9634C108.046 88.0247 106.162 93.6264 104.167 99.555C103.546 101.404 102.902 103.314 102.04 105.012C98.6698 111.646 109.953 127.089 110.069 127.244C110.11 127.299 110.136 127.363 110.145 127.429C112.079 141.158 106.075 148.433 104.102 150.823C103.868 151.107 103.624 151.4 103.576 151.499L103.572 151.501Z" fill="white"/>
<path d="M134.24 110.316C135.673 109.714 136.608 108.326 136.639 106.775C136.678 104.917 135.543 100.646 138.258 99.6609C145.554 97.0133 142.717 88.2588 138.377 85.0205C134.037 81.7821 117.026 76.4034 108.424 81.0724C108.424 81.0724 105.02 83.9206 105.785 86.739C105.785 86.739 98.9378 86.936 97.3354 92.0007C95.7349 97.0654 93.0382 115.663 110.112 129.737C110.112 129.737 114.519 130.255 119.421 128.96C122.272 128.208 124.358 125.765 124.755 122.848C125.361 118.376 127.181 111.524 128.421 109.491C128.421 109.491 127.63 106.323 129.411 105.508C130.567 104.978 131.975 106.316 132.601 107.421L134.24 110.318V110.316Z" fill="white"/>
<path d="M141.056 131.933C141.033 131.933 141.011 131.931 140.987 131.927C140.923 131.916 134.572 130.781 133.088 123.888C133.04 123.665 133.181 123.448 133.405 123.4C133.626 123.351 133.846 123.492 133.894 123.715C135.262 130.07 141.065 131.106 141.124 131.117C141.348 131.155 141.5 131.366 141.463 131.591C141.43 131.792 141.255 131.935 141.057 131.935L141.056 131.933Z" fill="white"/>
<path d="M133.023 117.35C133.023 117.35 133.018 117.35 133.014 117.35C132.796 117.345 127.663 117.125 126.299 108.053C126.266 107.828 126.42 107.618 126.645 107.585C126.872 107.551 127.079 107.706 127.114 107.931C128.369 116.274 132.846 116.522 133.036 116.527C133.263 116.535 133.442 116.724 133.435 116.949C133.429 117.172 133.247 117.348 133.023 117.348V117.35Z" fill="white"/>
<path d="M206.852 286.784L206.055 283.88L202.768 284.028C202.463 283.389 202.111 282.783 201.711 282.217L203.451 279.432L201.309 277.316L198.536 279.088C197.959 278.692 197.349 278.345 196.714 278.051L196.828 274.765L193.913 274.001L192.4 276.916C191.708 276.862 191.006 276.868 190.301 276.931L188.755 274.029L185.848 274.824L185.996 278.109C185.356 278.414 184.75 278.767 184.182 279.164L181.394 277.425L179.274 279.565L181.048 282.336C180.652 282.912 180.305 283.521 180.009 284.155L176.719 284.041L175.956 286.953L178.874 288.463C178.82 289.154 178.826 289.855 178.889 290.561L175.984 292.105L176.781 295.009L180.067 294.86C180.372 295.499 180.724 296.105 181.124 296.671L179.384 299.456L181.526 301.573L184.299 299.8C184.876 300.196 185.487 300.543 186.121 300.837L186.008 304.124L188.922 304.887L190.435 301.972C191.127 302.026 191.829 302.02 192.534 301.957L194.081 304.859L196.988 304.064L196.839 300.779C197.479 300.475 198.086 300.122 198.654 299.724L201.441 301.463L203.561 299.323L201.788 296.552C202.184 295.977 202.53 295.367 202.826 294.734L206.116 294.847L206.879 291.936L203.961 290.425C204.015 289.734 204.01 289.033 203.946 288.327L206.852 286.784ZM193.469 296.918C189.337 298.048 185.07 295.618 183.94 291.492C182.808 287.363 185.241 283.101 189.372 281.972C193.504 280.842 197.771 283.272 198.901 287.398C200.033 291.527 197.6 295.789 193.469 296.918Z" fill="white"/>
<path d="M65.4388 87.7181C80.5798 87.7181 92.8541 75.4646 92.8541 60.3491C92.8541 45.2335 80.5798 32.98 65.4388 32.98C50.2977 32.98 38.0234 45.2335 38.0234 60.3491C38.0234 75.4646 50.2977 87.7181 65.4388 87.7181Z" fill="#FCFAFF"/>
<path d="M71.7905 56.492L71.6528 47.8099C71.5895 45.0044 69.3618 42.708 66.5535 42.5798C63.4585 42.4386 60.8903 44.9636 60.9629 48.057L61.0243 50.751C61.0466 51.6911 60.2687 52.4529 59.327 52.4157C58.4616 52.3804 57.7749 51.6762 57.7618 50.8123L57.7246 48.2539C57.6092 43.2877 61.5919 39.2096 66.7266 39.4177V39.4214C70.9679 39.5942 74.8501 43.3193 74.9562 47.8563L75.066 56.6239L71.7905 56.4901V56.492Z" fill="#5A3C81"/>
<path d="M75.0661 57.0364C75.0661 57.0364 75.0549 57.0364 75.0494 57.0364L71.7739 56.9026C71.5561 56.8933 71.3831 56.7168 71.3793 56.4976L71.2416 47.8155C71.1821 45.2293 69.1163 43.1075 66.535 42.9886C65.1578 42.9254 63.8588 43.4234 62.8687 44.3876C61.8879 45.3445 61.3426 46.6784 61.3743 48.044L61.4357 50.738C61.4487 51.2991 61.2254 51.8472 60.8252 52.2392C60.4233 52.6331 59.8668 52.8449 59.3103 52.8226C58.2272 52.778 57.3655 51.8973 57.3506 50.8142L57.3134 48.2558C57.2539 45.703 58.2104 43.323 60.0082 41.558C61.793 39.806 64.1863 38.8993 66.7434 39.0034C66.7639 39.0034 66.7844 39.0071 66.8048 39.0108C71.3458 39.23 75.2615 43.2617 75.3676 47.8452L75.4774 56.6183C75.4774 56.7317 75.4327 56.8394 75.3527 56.9175C75.2746 56.9918 75.1722 57.0345 75.0661 57.0345V57.0364ZM72.1963 56.0963L74.6492 56.1966L74.545 47.8619C74.4482 43.6797 70.8601 40.0011 66.7099 39.832C66.6895 39.832 66.6708 39.8283 66.6522 39.8246C64.3427 39.7447 62.1931 40.5696 60.587 42.147C58.953 43.7504 58.0839 45.9148 58.1379 48.2428L58.1751 50.8049C58.1844 51.4514 58.698 51.9772 59.3457 52.0032C59.6881 52.0181 60.0064 51.8936 60.2483 51.6558C60.4903 51.418 60.6205 51.1003 60.6131 50.7603L60.5517 48.0663C60.5144 46.4722 61.1491 44.919 62.2936 43.8024C63.4475 42.6765 64.9624 42.0968 66.5741 42.1693C69.5853 42.3067 71.9972 44.7815 72.0661 47.8006L72.1982 56.0963H72.1963Z" fill="white"/>
<path d="M68.1559 80.3626L64.4878 80.5075C59.4071 80.3812 54.9182 74.3206 55.3983 67.1955L56.1688 55.799L77.7609 55.6262C79.6778 55.6188 81.282 57.3243 81.1499 59.2324L80.4836 68.8565C80.0463 75.3313 74.6566 80.3607 68.1559 80.3607V80.3626Z" fill="#5A3C81"/>
<path d="M64.618 80.1842C57.466 80.1842 51.8065 74.1404 52.2903 67.0171L53.0385 55.9699H75.8663C76.916 55.9699 77.7479 56.858 77.6771 57.9021L76.9476 68.68C76.5084 75.1548 71.1206 80.1842 64.6199 80.1842H64.618Z" fill="#5A3C81"/>
<path d="M64.618 80.5967C61.0429 80.5967 57.7302 79.1605 55.2904 76.5539C52.8505 73.9472 51.639 70.5509 51.879 66.9893L52.6272 55.9421C52.6421 55.7265 52.8207 55.5593 53.0385 55.5593H75.8663C76.4804 55.5593 77.0741 55.8157 77.4929 56.2635C77.9116 56.7112 78.1293 57.3188 78.0884 57.93L77.3589 68.7078C76.9066 75.3741 71.3123 80.5948 64.6199 80.5948L64.618 80.5967ZM53.4218 56.3824L52.6998 67.0469C52.4746 70.3781 53.608 73.5552 55.8915 75.9946C58.175 78.4341 61.2737 79.7755 64.618 79.7755C70.8786 79.7755 76.1138 74.891 76.5363 68.6558L77.2658 57.878C77.2919 57.4878 77.1597 57.1144 76.8917 56.8283C76.6237 56.5422 76.259 56.3842 75.8663 56.3842H53.4218V56.3824Z" fill="white"/>
<path d="M64.3351 73.1966C63.7526 73.1966 63.2911 72.7061 63.3283 72.1246L63.8773 63.5354C63.9108 63.004 64.3519 62.5916 64.8841 62.5916C65.4666 62.5916 65.9282 63.082 65.891 63.6636L65.3419 72.2528C65.3084 72.7841 64.8674 73.1966 64.3351 73.1966Z" fill="white"/>
<path d="M64.6887 68.0278C66.7413 68.0278 68.4053 66.3667 68.4053 64.3176C68.4053 62.2684 66.7413 60.6073 64.6887 60.6073C62.6361 60.6073 60.9722 62.2684 60.9722 64.3176C60.9722 66.3667 62.6361 68.0278 64.6887 68.0278Z" fill="white"/>
</svg>
