<svg xmlns="http://www.w3.org/2000/svg" width="31.497" height="31.5" viewBox="0 0 31.497 31.5">
  <path id="home1" d="M30.65,13.7l0,0L17.8.849a2.9,2.9,0,0,0-4.1,0L.855,13.691.842,13.7a2.9,2.9,0,0,0,1.93,4.941q.044,0,.089,0h.512v9.456A3.4,3.4,0,0,0,6.767,31.5h5.027a.923.923,0,0,0,.923-.923V23.163a1.55,1.55,0,0,1,1.548-1.548h2.965a1.55,1.55,0,0,1,1.548,1.548v7.414a.923.923,0,0,0,.923.923h5.027a3.4,3.4,0,0,0,3.394-3.394V18.65H28.6A2.9,2.9,0,0,0,30.651,13.7Zm0,0" transform="translate(0 0.001)"/>
</svg>
