<svg xmlns="http://www.w3.org/2000/svg" width="31" height="26.038" viewBox="0 0 31 26.038">
  <g id="boxes" transform="translate(0 -3)">
    <path id="Path_473" data-name="Path 473" d="M29.916,23.975H23.869V4.085a1.085,1.085,0,1,0-2.17,0V16.743H20.212L16.808,7.1a3.982,3.982,0,0,0-3.751-2.654H8.318A1.085,1.085,0,0,0,7.233,5.532v7.595H3.978A3.981,3.981,0,0,0,0,17.1v6.51a2.534,2.534,0,0,0,2.532,2.532h.435a3.616,3.616,0,0,0,7.085,0h3.039a3.616,3.616,0,0,0,7.085,0h9.738a1.085,1.085,0,0,0,0-2.17ZM9.4,6.616h3.654a1.811,1.811,0,0,1,1.706,1.206l3.148,8.92h-6.7A1.811,1.811,0,0,1,9.4,14.934V6.616ZM6.51,26.869a1.447,1.447,0,1,1,1.447-1.447A1.448,1.448,0,0,1,6.51,26.869Zm10.126,0a1.447,1.447,0,1,1,1.447-1.447A1.448,1.448,0,0,1,16.636,26.869Z"/>
    <path id="Path_474" data-name="Path 474" d="M21.8,11v.69a.764.764,0,0,1-1.52,0V11H18.507a.485.485,0,0,0-.507.46v3.68a.485.485,0,0,0,.507.46h5.068a.485.485,0,0,0,.507-.46V11.46a.485.485,0,0,0-.507-.46Z" transform="translate(6.919 1.333)"/>
    <path id="Path_476" data-name="Path 476" d="M21.8,11v.69a.764.764,0,0,1-1.52,0V11H18.507a.485.485,0,0,0-.507.46v3.68a.485.485,0,0,0,.507.46h5.068a.485.485,0,0,0,.507-.46V11.46a.485.485,0,0,0-.507-.46Z" transform="translate(6.919 7.546)"/>
    <path id="Path_475" data-name="Path 475" d="M21.8,5v.724a.761.761,0,0,1-1.52,0V5H18.507A.5.5,0,0,0,18,5.483V9.343a.5.5,0,0,0,.507.483h5.068a.5.5,0,0,0,.507-.483V5.483A.5.5,0,0,0,23.575,5Z" transform="translate(6.919 0.893)"/>
  </g>
</svg>
