<svg id="duplicate" xmlns="http://www.w3.org/2000/svg" width="28.355" height="28.355" viewBox="0 0 28.355 28.355">
  <path id="Path_5933" data-name="Path 5933" d="M3.619,75.3.1,78.821H3.619Z" transform="translate(-0.094 -71.132)" fill="#f59e1d"/>
  <path id="Path_5934" data-name="Path 5934" d="M184.73.1l-3.519,3.519h3.519Z" transform="translate(-171.175 -0.094)" fill="#f59e1d"/>
  <path id="Path_5935" data-name="Path 5935" d="M186.3,0V5.186h-5.186v19h18.325V0Zm9.717,16.051H184.533V14.39h11.481v1.661Zm0-3.53H184.533V10.86h11.481v1.661Zm0-3.53H184.533V7.331h11.481V8.992Z" transform="translate(-171.081)" fill="#f59e1d"/>
  <path id="Path_5936" data-name="Path 5936" d="M8.369,96.889V91.253H3.422V89.592H8.369V87.724H3.422V86.062H8.369V84.194H3.422V82.533H8.369V75.2H5.186v5.186H0v19H18.325v-2.5Z" transform="translate(0 -71.037)" fill="#f59e1d"/>
</svg>
