<svg xmlns="http://www.w3.org/2000/svg" width="28.869" height="28.869" viewBox="0 0 28.869 28.869">
  <path id="gear" d="M28.19,11.148l-2.219-.482a12.076,12.076,0,0,0-.714-1.722l1.228-1.911a.863.863,0,0,0-.116-1.076L22.913,2.5a.863.863,0,0,0-1.076-.116L19.926,3.612A12.076,12.076,0,0,0,18.2,2.9L17.722.679A.863.863,0,0,0,16.879,0H11.99a.863.863,0,0,0-.843.679L10.665,2.9a12.076,12.076,0,0,0-1.722.714L7.033,2.384A.863.863,0,0,0,5.956,2.5L2.5,5.956a.863.863,0,0,0-.116,1.076L3.612,8.943A12.076,12.076,0,0,0,2.9,10.665l-2.219.482A.863.863,0,0,0,0,11.99v4.888a.863.863,0,0,0,.679.843L2.9,18.2a12.076,12.076,0,0,0,.714,1.722L2.384,21.837A.863.863,0,0,0,2.5,22.913L5.956,26.37a.863.863,0,0,0,1.076.116l1.911-1.228a12.076,12.076,0,0,0,1.722.714l.482,2.219a.863.863,0,0,0,.843.679h4.888a.863.863,0,0,0,.843-.679l.482-2.219a12.076,12.076,0,0,0,1.722-.714l1.911,1.228a.863.863,0,0,0,1.076-.116l3.457-3.457a.863.863,0,0,0,.116-1.076l-1.228-1.911a12.076,12.076,0,0,0,.714-1.722l2.219-.482a.863.863,0,0,0,.679-.843V11.99A.863.863,0,0,0,28.19,11.148Zm-8.58,3.287a5.176,5.176,0,1,1-5.176-5.176A5.182,5.182,0,0,1,19.61,14.435Zm0,0" fill="#f59e1d"/>
</svg>
