<svg id="checklist" xmlns="http://www.w3.org/2000/svg" width="28.355" height="28.354" viewBox="0 0 28.355 28.354">
  <g id="Group_1297" data-name="Group 1297" transform="translate(5.322)">
    <path id="Path_5937" data-name="Path 5937" d="M209.1,27.709a1.3,1.3,0,0,0,.949-.426,1.332,1.332,0,0,0,.335-.873V1.315a1.309,1.309,0,0,0-1.31-1.308H192.7a2.948,2.948,0,0,1,.724,1.152h.966A1.313,1.313,0,0,1,195.7,2.37h3.219a2.107,2.107,0,0,1,2.107,2.1V27.719l8.071-.009Z" transform="translate(-187.351 -0.007)" fill="#f59e1d"/>
    <path id="Path_5938" data-name="Path 5938" d="M100.478,18.569a1.147,1.147,0,0,0-2.293,0,.911.911,0,0,1-.91.893H96.064c0,.2,0,.8,0,1H102.6c0-.268,0-.739,0-1h-1.211A.911.911,0,0,1,100.478,18.569Z" transform="translate(-96.064 -16.487)" fill="#f59e1d"/>
  </g>
  <path id="Path_5939" data-name="Path 5939" d="M16.893,75.559H13.678v.191a1.42,1.42,0,0,1-1.419,1.418H4.92A1.42,1.42,0,0,1,3.5,75.75v-.191H.286A.284.284,0,0,0,0,75.84V99.447a.284.284,0,0,0,.286.281H16.893a.284.284,0,0,0,.286-.281V75.84a.284.284,0,0,0-.286-.281ZM2,80.887A.917.917,0,0,1,3.3,80.822l.451.408L5.43,79.309a.917.917,0,0,1,1.379,1.208l-2.3,2.622a.943.943,0,0,1-1.3.076L2.067,82.182A.917.917,0,0,1,2,80.887Zm12.485,16.78H2.607a.917.917,0,0,1,0-1.833h11.88a.917.917,0,0,1,0,1.833ZM2,91.394A.917.917,0,0,1,3.3,91.33l.451.408L5.43,89.816a.917.917,0,0,1,1.379,1.208l-2.3,2.622a.943.943,0,0,1-1.3.076L2.067,92.689A.917.917,0,0,1,2,91.394ZM14.487,93.92H9.334a.917.917,0,0,1,0-1.833h5.153a.917.917,0,0,1,0,1.833Zm0-6.7H2.607a.917.917,0,1,1,0-1.833h11.88a.917.917,0,1,1,0,1.833Zm0-3.8H9.334a.917.917,0,0,1,0-1.833h5.153a.917.917,0,1,1,0,1.833Z" transform="translate(0 -71.373)" fill="#f59e1d"/>
</svg>
