<svg xmlns="http://www.w3.org/2000/svg" width="605.332" height="579.623" viewBox="0 0 605.332 579.623">
  <g id="ASARA_COLOUR" data-name="ASARA COLOUR" transform="translate(-10.92 -1.46)">
    <path id="Path_1931" data-name="Path 1931" d="M1186.817,829.535c-37.942-54.769-86.5-97.163-146.957-125.6-40.133-18.854-82.43-29.48-126.56-33.077-1.792-.138-3.569-.455-7.4-.951a410.456,410.456,0,0,1,115.672-18.427L896.831,435.109c-2.467,4.011-4.259,6.753-5.9,9.578Q819.569,568.2,748.041,691.619a29.992,29.992,0,0,1-12.266,11.439A364.547,364.547,0,0,0,593.269,821.4a15.436,15.436,0,0,1-8.269,6.23Q735.6,566.823,886.825,305.09c2.164,3.294,3.914,5.706,5.4,8.269q146.544,253.878,293.115,507.783c1.227,2.122,2.178,4.4,3.252,6.6Z" transform="translate(-574.08 -303.63)" fill="#1b3f67"/>
    <path id="Path_1932" data-name="Path 1932" d="M967.091,602.266c-52.785,3.266-103.751,14.43-152.553,35.034a458.018,458.018,0,0,0-122.081,76.035c-2.3,1.985-4.879,3.638-7.318,5.513.62-2.563.689-5.43,1.943-7.622q71.9-124.782,144.022-249.454c8.889-15.394,17.917-30.734,27.412-47.093,2.095,2.839,3.473,4.383,4.493,6.133q35.227,60.944,70.288,121.943C944.723,562.464,955.859,582.393,967.091,602.266Z" transform="translate(-536.207 -262.183)" fill="#bb3741"/>
    <path id="Path_1933" data-name="Path 1933" d="M846.72,648.357c15.16,0,30.555-1.254,45.6.372,13.782,1.488,24.242,9.827,27.206,24.229s-3.156,25.069-13.258,30.872c6.188,16.263,12.142,31.892,18.785,49.326-7.056,0-12.776.455-18.358-.234-1.957-.248-4.438-2.977-5.2-5.086-2.274-6.381-3.721-13.038-5.678-19.529-3.335-11.026-7.263-21.569-22.919-18.261,1.778-8.035,5.2-12.4,11.866-14.43,10.157-3.087,14.747-9.1,14.127-17.71-.579-8.269-7.236-14.692-16.538-16.139-13.451-2.067-15.491-.317-15.491,13.3v77.5H846.72Z" transform="translate(-475.098 -173.982)" fill="#1e4269"/>
    <path id="Path_1934" data-name="Path 1934" d="M676.792,672.586c-5.182,15.822-9.454,28.942-14.058,42.931,12-1.047,22.41-.441,25.772,14.705-7.925,0-15.45.3-22.919-.11-5.416-.289-8.6,1.006-9.854,6.891-1.172,5.361-3.487,10.474-5.361,15.849H630.65c.992-3.142,1.75-5.968,2.756-8.71,10.1-28.143,20.673-56.12,30.127-84.47,2.949-8.834,6.891-12.983,16.194-11.122,2.37.482,4.906.083,7.994.083l37.528,104.522c-5.637,0-9.923-.386-14.1.1-5.719.662-8.062-1.888-9.647-7.084-7.029-22.051-14.457-43.923-21.762-65.85C679.107,678.608,678.446,677,676.792,672.586Z" transform="translate(-556.815 -173.9)" fill="#1e4269"/>
    <path id="Path_1935" data-name="Path 1935" d="M859.882,752.579c-20.328,1.282-20.3,1.282-26.337-16.883-6.891-20.756-13.782-41.5-21.252-63.659l-14.306,43.441c12.4-1.3,22.754,0,25.938,14.664-8.352,0-16.3.331-24.229-.124-4.948-.289-7.456,1.5-8.366,6.119a22.821,22.821,0,0,1-.744,2.756c-5.513,16.3-5.513,16.3-24.477,13.01,2.756-8.145,5.513-16.194,8.407-24.2,8.614-24.091,17.586-48.058,25.745-72.3,2.247-6.684,6.174-7.235,11.756-6.891s11.026-1.378,13.782,6.781c10.6,31.23,22.051,62.157,33.2,93.207A39.291,39.291,0,0,1,859.882,752.579Z" transform="translate(-505.585 -173.779)" fill="#1f4369"/>
    <path id="Path_1936" data-name="Path 1936" d="M970.016,730.032H940.151c-2.756,7.842-5.32,15.078-7.98,22.63H912.78c.786-2.88,1.378-5.389,2.178-7.787,10.13-28.418,20.673-56.7,30.238-85.338,2.936-8.848,7.015-12.776,16.249-11.026a48.074,48.074,0,0,0,8.035,0q18.592,51.82,37.046,103.158c-1.061.675-1.53,1.227-2.026,1.254-18.468.786-18.468.786-24.394-16.952l-21.321-63.714c-4.837,14.54-9.275,27.881-14.223,42.724C955.711,715.216,967.563,714.61,970.016,730.032Z" transform="translate(-450.115 -173.903)" fill="#1f4369"/>
    <path id="Path_1937" data-name="Path 1937" d="M769.247,650.721c-2.522,5.968-4.038,9.647-5.6,13.272-7.718-.8-15.16-2.756-22.272-1.888-4.658.538-11.026,4.135-12.638,8.021-1.378,3.142,1.971,10.254,5.347,13.01,6.891,5.6,15.229,9.261,22.782,14.044,9.647,6.064,18.164,13.093,19.364,25.566,1.378,14.76-5.154,25.386-19.295,29.852-16.718,5.292-32.76,2.467-49.05-5.292l4.644-11.77c9.179,1.654,17.765,3.735,26.475,4.6,7.856.786,15.243-1.681,17.917-10.006s-3.1-13.369-9.3-17.3c-7.566-4.755-15.7-8.641-23.154-13.562-13.63-8.958-18.261-20.067-14.471-32.939,3.528-11.963,13.961-19.295,29.6-19.074C749.015,647.385,758.415,649.384,769.247,650.721Z" transform="translate(-527.603 -174.224)" fill="#1f436a"/>
    <path id="Path_1938" data-name="Path 1938" d="M970.794,604.464c-11.232-19.874-22.368-39.8-33.738-59.593q-35.061-61.026-70.288-121.943c-1.02-1.75-2.4-3.294-4.493-6.133-9.523,16.359-18.523,31.7-27.412,47.093Q762.8,588.587,690.841,713.341c-1.254,2.191-1.378,5.058-1.943,7.621H688.7l-2.853,3.266q-3.859,4.824-7.745,9.647l-2.756-1.9,186.484-323.1a97.31,97.31,0,0,1,6.243,8.338q51.93,89.693,103.558,179.524C972.655,598.5,979.918,603,970.794,604.464Z" transform="translate(-539.91 -264.381)" fill="#4b4042"/>
    <path id="Path_1939" data-name="Path 1939" d="M1023.488,684.32l1.681,5.2-1.282.537-2.177-3.942Z" transform="translate(-408.918 -160.206)" fill="#1b3f67"/>
    <path id="Path_1940" data-name="Path 1940" d="M682.93,638.576l2.853-3.266Z" transform="translate(-537.043 -178.742)" fill="#bb3741"/>
  </g>
</svg>
